<mxfile host="app.diagrams.net" agent="Mozilla/5.0 (Windows NT 10.0; Win64; x64) AppleWebKit/537.36 (KHTML, like Gecko) Chrome/124.0.0.0 Safari/537.36" version="24.9.0" pages="8">
  <diagram name="main" id="xpSSESCQW42gkurEcJAx">
    <mxGraphModel dx="2657" dy="1798" grid="1" gridSize="30" guides="1" tooltips="1" connect="1" arrows="1" fold="1" page="1" pageScale="1" pageWidth="850" pageHeight="1100" math="0" shadow="0">
      <root>
        <mxCell id="0" />
        <mxCell id="1" parent="0" />
        <mxCell id="0E97d4MEge5TzQr-1SJ9-1" style="edgeStyle=orthogonalEdgeStyle;rounded=0;orthogonalLoop=1;jettySize=auto;html=1;exitX=1;exitY=0.5;exitDx=0;exitDy=0;entryX=1;entryY=0.5;entryDx=0;entryDy=0;" parent="1" edge="1">
          <mxGeometry relative="1" as="geometry">
            <mxPoint x="190" y="119.99999999999989" as="targetPoint" />
            <Array as="points">
              <mxPoint x="560" y="300" />
              <mxPoint x="560" y="120" />
            </Array>
          </mxGeometry>
        </mxCell>
        <mxCell id="0E97d4MEge5TzQr-1SJ9-2" value="Program line" style="swimlane;whiteSpace=wrap;html=1;arcSize=20;fontSize=21;" parent="1" vertex="1">
          <mxGeometry x="30" y="10" width="200" height="150" as="geometry" />
        </mxCell>
        <mxCell id="0E97d4MEge5TzQr-1SJ9-3" value="p_id:string" style="text;align=left;verticalAlign=top;spacingLeft=4;spacingRight=4;overflow=hidden;rotatable=0;points=[[0,0.5],[1,0.5]];portConstraint=eastwest;arcSize=20;fontSize=21;" parent="0E97d4MEge5TzQr-1SJ9-2" vertex="1">
          <mxGeometry y="22" width="200" height="28" as="geometry" />
        </mxCell>
        <mxCell id="0E97d4MEge5TzQr-1SJ9-4" value="day : day" style="text;align=left;verticalAlign=top;spacingLeft=4;spacingRight=4;overflow=hidden;rotatable=0;points=[[0,0.5],[1,0.5]];portConstraint=eastwest;arcSize=20;fontSize=21;" parent="0E97d4MEge5TzQr-1SJ9-2" vertex="1">
          <mxGeometry y="52" width="200" height="28" as="geometry" />
        </mxCell>
        <mxCell id="0E97d4MEge5TzQr-1SJ9-5" value="location:string" style="text;align=left;verticalAlign=top;spacingLeft=4;spacingRight=4;overflow=hidden;rotatable=0;points=[[0,0.5],[1,0.5]];portConstraint=eastwest;arcSize=20;fontSize=21;" parent="0E97d4MEge5TzQr-1SJ9-2" vertex="1">
          <mxGeometry y="80" width="200" height="70" as="geometry" />
        </mxCell>
        <mxCell id="0E97d4MEge5TzQr-1SJ9-6" value="" style="endArrow=none;html=1;rounded=0;entryX=-0.011;entryY=-0.082;entryDx=0;entryDy=0;entryPerimeter=0;arcSize=20;fontSize=21;" parent="0E97d4MEge5TzQr-1SJ9-2" target="0E97d4MEge5TzQr-1SJ9-4" edge="1">
          <mxGeometry width="50" height="50" relative="1" as="geometry">
            <mxPoint x="2.0744680851066732" y="52" as="sourcePoint" />
            <mxPoint y="47" as="targetPoint" />
          </mxGeometry>
        </mxCell>
        <mxCell id="0E97d4MEge5TzQr-1SJ9-8" value="Trip Departure" style="swimlane;whiteSpace=wrap;html=1;arcSize=20;fontSize=21;" parent="1" vertex="1">
          <mxGeometry x="30" y="240" width="200" height="140" as="geometry" />
        </mxCell>
        <mxCell id="0E97d4MEge5TzQr-1SJ9-9" value="start_time:date" style="text;align=left;verticalAlign=top;spacingLeft=4;spacingRight=4;overflow=hidden;rotatable=0;points=[[0,0.5],[1,0.5]];portConstraint=eastwest;arcSize=20;fontSize=21;" parent="0E97d4MEge5TzQr-1SJ9-8" vertex="1">
          <mxGeometry y="22" width="200" height="28" as="geometry" />
        </mxCell>
        <mxCell id="0E97d4MEge5TzQr-1SJ9-10" value="status:string" style="text;align=left;verticalAlign=top;spacingLeft=4;spacingRight=4;overflow=hidden;rotatable=0;points=[[0,0.5],[1,0.5]];portConstraint=eastwest;arcSize=20;fontSize=21;" parent="0E97d4MEge5TzQr-1SJ9-8" vertex="1">
          <mxGeometry y="78" width="200" height="28" as="geometry" />
        </mxCell>
        <mxCell id="0E97d4MEge5TzQr-1SJ9-11" value="end_time:date" style="text;align=left;verticalAlign=top;spacingLeft=4;spacingRight=4;overflow=hidden;rotatable=0;points=[[0,0.5],[1,0.5]];portConstraint=eastwest;arcSize=20;fontSize=21;" parent="0E97d4MEge5TzQr-1SJ9-8" vertex="1">
          <mxGeometry y="50" width="200" height="28" as="geometry" />
        </mxCell>
        <mxCell id="0E97d4MEge5TzQr-1SJ9-12" value="departureId:string" style="text;strokeColor=none;fillColor=none;align=left;verticalAlign=top;spacingLeft=4;spacingRight=4;overflow=hidden;rotatable=0;points=[[0,0.5],[1,0.5]];portConstraint=eastwest;whiteSpace=wrap;html=1;arcSize=20;fontSize=21;" parent="0E97d4MEge5TzQr-1SJ9-8" vertex="1">
          <mxGeometry y="106" width="200" height="26" as="geometry" />
        </mxCell>
        <mxCell id="0E97d4MEge5TzQr-1SJ9-13" value="Trip" style="swimlane;whiteSpace=wrap;html=1;arcSize=20;fontSize=21;" parent="1" vertex="1">
          <mxGeometry x="-290" y="230" width="200" height="200" as="geometry" />
        </mxCell>
        <mxCell id="0E97d4MEge5TzQr-1SJ9-14" value="t_id:string" style="text;align=left;verticalAlign=top;spacingLeft=4;spacingRight=4;overflow=hidden;rotatable=0;points=[[0,0.5],[1,0.5]];portConstraint=eastwest;arcSize=20;fontSize=21;" parent="0E97d4MEge5TzQr-1SJ9-13" vertex="1">
          <mxGeometry y="22" width="200" height="28" as="geometry" />
        </mxCell>
        <mxCell id="0E97d4MEge5TzQr-1SJ9-15" value="destination:string" style="text;align=left;verticalAlign=top;spacingLeft=4;spacingRight=4;overflow=hidden;rotatable=0;points=[[0,0.5],[1,0.5]];portConstraint=eastwest;arcSize=20;fontSize=21;" parent="0E97d4MEge5TzQr-1SJ9-13" vertex="1">
          <mxGeometry y="52" width="200" height="28" as="geometry" />
        </mxCell>
        <mxCell id="0E97d4MEge5TzQr-1SJ9-16" value="startDate:date" style="text;align=left;verticalAlign=top;spacingLeft=4;spacingRight=4;overflow=hidden;rotatable=0;points=[[0,0.5],[1,0.5]];portConstraint=eastwest;arcSize=20;fontSize=21;" parent="0E97d4MEge5TzQr-1SJ9-13" vertex="1">
          <mxGeometry y="80" width="200" height="28" as="geometry" />
        </mxCell>
        <mxCell id="0E97d4MEge5TzQr-1SJ9-17" value="endDate:date" style="text;align=left;verticalAlign=top;spacingLeft=4;spacingRight=4;overflow=hidden;rotatable=0;points=[[0,0.5],[1,0.5]];portConstraint=eastwest;arcSize=20;fontSize=21;" parent="0E97d4MEge5TzQr-1SJ9-13" vertex="1">
          <mxGeometry y="108" width="200" height="72" as="geometry" />
        </mxCell>
        <mxCell id="IS2T9DVD0veICIM0GRRE-1" value="tripPrice" style="text;align=left;verticalAlign=top;spacingLeft=4;spacingRight=4;overflow=hidden;rotatable=0;points=[[0,0.5],[1,0.5]];portConstraint=eastwest;arcSize=20;fontSize=21;" parent="0E97d4MEge5TzQr-1SJ9-13" vertex="1">
          <mxGeometry y="130" width="200" height="28" as="geometry" />
        </mxCell>
        <mxCell id="0E97d4MEge5TzQr-1SJ9-20" value="Flight" style="swimlane;whiteSpace=wrap;html=1;arcSize=20;fontSize=21;" parent="1" vertex="1">
          <mxGeometry x="40" y="460" width="200" height="190" as="geometry" />
        </mxCell>
        <mxCell id="0E97d4MEge5TzQr-1SJ9-21" value="flight_id:string" style="text;align=left;verticalAlign=top;spacingLeft=4;spacingRight=4;overflow=hidden;rotatable=0;points=[[0,0.5],[1,0.5]];portConstraint=eastwest;arcSize=20;fontSize=21;" parent="0E97d4MEge5TzQr-1SJ9-20" vertex="1">
          <mxGeometry y="22" width="200" height="28" as="geometry" />
        </mxCell>
        <mxCell id="0E97d4MEge5TzQr-1SJ9-22" value="flight_price:double" style="text;align=left;verticalAlign=top;spacingLeft=4;spacingRight=4;overflow=hidden;rotatable=0;points=[[0,0.5],[1,0.5]];portConstraint=eastwest;arcSize=20;fontSize=21;" parent="0E97d4MEge5TzQr-1SJ9-20" vertex="1">
          <mxGeometry y="50" width="200" height="28" as="geometry" />
        </mxCell>
        <mxCell id="0E97d4MEge5TzQr-1SJ9-23" value="departure_Airport:string" style="text;strokeColor=none;fillColor=none;align=left;verticalAlign=top;spacingLeft=4;spacingRight=4;overflow=hidden;rotatable=0;points=[[0,0.5],[1,0.5]];portConstraint=eastwest;whiteSpace=wrap;html=1;arcSize=20;fontSize=21;" parent="0E97d4MEge5TzQr-1SJ9-20" vertex="1">
          <mxGeometry y="82" width="200" height="26" as="geometry" />
        </mxCell>
        <mxCell id="0E97d4MEge5TzQr-1SJ9-24" value="arrival_Airport:string" style="text;strokeColor=none;fillColor=none;align=left;verticalAlign=top;spacingLeft=4;spacingRight=4;overflow=hidden;rotatable=0;points=[[0,0.5],[1,0.5]];portConstraint=eastwest;whiteSpace=wrap;html=1;arcSize=20;fontSize=21;" parent="0E97d4MEge5TzQr-1SJ9-20" vertex="1">
          <mxGeometry y="108" width="200" height="26" as="geometry" />
        </mxCell>
        <mxCell id="0E97d4MEge5TzQr-1SJ9-25" value="available_seats:int" style="text;strokeColor=none;fillColor=none;align=left;verticalAlign=top;spacingLeft=4;spacingRight=4;overflow=hidden;rotatable=0;points=[[0,0.5],[1,0.5]];portConstraint=eastwest;whiteSpace=wrap;html=1;arcSize=20;fontSize=21;" parent="0E97d4MEge5TzQr-1SJ9-20" vertex="1">
          <mxGeometry y="134" width="200" height="26" as="geometry" />
        </mxCell>
        <mxCell id="0E97d4MEge5TzQr-1SJ9-26" value="Flight Departure" style="swimlane;whiteSpace=wrap;html=1;arcSize=20;fontSize=21;" parent="1" vertex="1">
          <mxGeometry x="35" y="700" width="210" height="190" as="geometry" />
        </mxCell>
        <mxCell id="0E97d4MEge5TzQr-1SJ9-27" value="departure_day:string" style="text;align=left;verticalAlign=top;spacingLeft=4;spacingRight=4;overflow=hidden;rotatable=0;points=[[0,0.5],[1,0.5]];portConstraint=eastwest;arcSize=20;fontSize=21;" parent="0E97d4MEge5TzQr-1SJ9-26" vertex="1">
          <mxGeometry y="20" width="200" height="28" as="geometry" />
        </mxCell>
        <mxCell id="0E97d4MEge5TzQr-1SJ9-28" value="arrival_time:time" style="text;align=left;verticalAlign=top;spacingLeft=4;spacingRight=4;overflow=hidden;rotatable=0;points=[[0,0.5],[1,0.5]];portConstraint=eastwest;arcSize=20;fontSize=21;" parent="0E97d4MEge5TzQr-1SJ9-26" vertex="1">
          <mxGeometry y="76" width="200" height="28" as="geometry" />
        </mxCell>
        <mxCell id="0E97d4MEge5TzQr-1SJ9-29" value="departure_time:time" style="text;align=left;verticalAlign=top;spacingLeft=4;spacingRight=4;overflow=hidden;rotatable=0;points=[[0,0.5],[1,0.5]];portConstraint=eastwest;arcSize=20;fontSize=21;" parent="0E97d4MEge5TzQr-1SJ9-26" vertex="1">
          <mxGeometry y="48" width="200" height="28" as="geometry" />
        </mxCell>
        <mxCell id="0E97d4MEge5TzQr-1SJ9-30" value="flight_id:string" style="text;align=left;verticalAlign=top;spacingLeft=4;spacingRight=4;overflow=hidden;rotatable=0;points=[[0,0.5],[1,0.5]];portConstraint=eastwest;arcSize=20;fontSize=21;" parent="0E97d4MEge5TzQr-1SJ9-26" vertex="1">
          <mxGeometry y="104" width="210" height="28" as="geometry" />
        </mxCell>
        <mxCell id="0E97d4MEge5TzQr-1SJ9-31" value="flight_daperture_id:string" style="text;strokeColor=none;fillColor=none;align=left;verticalAlign=top;spacingLeft=4;spacingRight=4;overflow=hidden;rotatable=0;points=[[0,0.5],[1,0.5]];portConstraint=eastwest;whiteSpace=wrap;html=1;arcSize=20;fontSize=21;" parent="0E97d4MEge5TzQr-1SJ9-26" vertex="1">
          <mxGeometry y="132" width="210" height="26" as="geometry" />
        </mxCell>
        <mxCell id="0E97d4MEge5TzQr-1SJ9-32" value="arrival_day:string" style="text;align=left;verticalAlign=top;spacingLeft=4;spacingRight=4;overflow=hidden;rotatable=0;points=[[0,0.5],[1,0.5]];portConstraint=eastwest;arcSize=20;fontSize=21;" parent="0E97d4MEge5TzQr-1SJ9-26" vertex="1">
          <mxGeometry y="158" width="210" height="28" as="geometry" />
        </mxCell>
        <mxCell id="0E97d4MEge5TzQr-1SJ9-33" value="Reservation" style="swimlane;whiteSpace=wrap;html=1;arcSize=20;fontSize=21;" parent="1" vertex="1">
          <mxGeometry x="600" y="350" width="200" height="190" as="geometry" />
        </mxCell>
        <mxCell id="0E97d4MEge5TzQr-1SJ9-34" value="no _of trip:int" style="text;align=left;verticalAlign=top;spacingLeft=4;spacingRight=4;overflow=hidden;rotatable=0;points=[[0,0.5],[1,0.5]];portConstraint=eastwest;arcSize=20;fontSize=21;" parent="0E97d4MEge5TzQr-1SJ9-33" vertex="1">
          <mxGeometry y="20" width="200" height="28" as="geometry" />
        </mxCell>
        <mxCell id="0E97d4MEge5TzQr-1SJ9-35" value="reservation_id:string" style="text;align=left;verticalAlign=top;spacingLeft=4;spacingRight=4;overflow=hidden;rotatable=0;points=[[0,0.5],[1,0.5]];portConstraint=eastwest;arcSize=20;fontSize=21;" parent="0E97d4MEge5TzQr-1SJ9-33" vertex="1">
          <mxGeometry y="48" width="200" height="32" as="geometry" />
        </mxCell>
        <mxCell id="0E97d4MEge5TzQr-1SJ9-36" value="time_of_reservation_time" style="text;align=left;verticalAlign=top;spacingLeft=4;spacingRight=4;overflow=hidden;rotatable=0;points=[[0,0.5],[1,0.5]];portConstraint=eastwest;arcSize=20;fontSize=21;" parent="0E97d4MEge5TzQr-1SJ9-33" vertex="1">
          <mxGeometry y="76" width="200" height="28" as="geometry" />
        </mxCell>
        <mxCell id="0E97d4MEge5TzQr-1SJ9-37" value="no _of guest:int" style="text;align=left;verticalAlign=top;spacingLeft=4;spacingRight=4;overflow=hidden;rotatable=0;points=[[0,0.5],[1,0.5]];portConstraint=eastwest;arcSize=20;fontSize=21;" parent="0E97d4MEge5TzQr-1SJ9-33" vertex="1">
          <mxGeometry y="104" width="200" height="28" as="geometry" />
        </mxCell>
        <mxCell id="0E97d4MEge5TzQr-1SJ9-38" value="t_id:string" style="text;align=left;verticalAlign=top;spacingLeft=4;spacingRight=4;overflow=hidden;rotatable=0;points=[[0,0.5],[1,0.5]];portConstraint=eastwest;arcSize=20;fontSize=21;" parent="0E97d4MEge5TzQr-1SJ9-33" vertex="1">
          <mxGeometry y="160" width="200" height="28" as="geometry" />
        </mxCell>
        <mxCell id="0E97d4MEge5TzQr-1SJ9-39" value="p_id:int" style="text;align=left;verticalAlign=top;spacingLeft=4;spacingRight=4;overflow=hidden;rotatable=0;points=[[0,0.5],[1,0.5]];portConstraint=eastwest;arcSize=20;fontSize=21;" parent="0E97d4MEge5TzQr-1SJ9-33" vertex="1">
          <mxGeometry y="132" width="200" height="28" as="geometry" />
        </mxCell>
        <mxCell id="0E97d4MEge5TzQr-1SJ9-40" value="Customer" style="swimlane;whiteSpace=wrap;html=1;arcSize=20;fontSize=21;" parent="1" vertex="1">
          <mxGeometry x="990" y="240" width="240" height="240" as="geometry" />
        </mxCell>
        <mxCell id="0E97d4MEge5TzQr-1SJ9-41" value="customerId:string" style="text;align=left;verticalAlign=top;spacingLeft=4;spacingRight=4;overflow=hidden;rotatable=0;points=[[0,0.5],[1,0.5]];portConstraint=eastwest;arcSize=20;fontSize=21;" parent="0E97d4MEge5TzQr-1SJ9-40" vertex="1">
          <mxGeometry y="20" width="200" height="28" as="geometry" />
        </mxCell>
        <mxCell id="0E97d4MEge5TzQr-1SJ9-42" value="fName:string&#xa;mName:string&#xa;lName:string&#xa;" style="text;align=left;verticalAlign=top;spacingLeft=4;spacingRight=4;overflow=hidden;rotatable=0;points=[[0,0.5],[1,0.5]];portConstraint=eastwest;arcSize=20;fontSize=21;" parent="0E97d4MEge5TzQr-1SJ9-40" vertex="1">
          <mxGeometry y="40" width="200" height="50" as="geometry" />
        </mxCell>
        <mxCell id="0E97d4MEge5TzQr-1SJ9-43" value="bdate:date" style="text;align=left;verticalAlign=top;spacingLeft=4;spacingRight=4;overflow=hidden;rotatable=0;points=[[0,0.5],[1,0.5]];portConstraint=eastwest;arcSize=20;fontSize=21;" parent="0E97d4MEge5TzQr-1SJ9-40" vertex="1">
          <mxGeometry y="124" width="200" height="28" as="geometry" />
        </mxCell>
        <mxCell id="0E97d4MEge5TzQr-1SJ9-44" value="phone:int" style="text;align=left;verticalAlign=top;spacingLeft=4;spacingRight=4;overflow=hidden;rotatable=0;points=[[0,0.5],[1,0.5]];portConstraint=eastwest;arcSize=20;fontSize=21;" parent="0E97d4MEge5TzQr-1SJ9-40" vertex="1">
          <mxGeometry y="80" width="200" height="28" as="geometry" />
        </mxCell>
        <mxCell id="0E97d4MEge5TzQr-1SJ9-45" value="street:string&#xa;city:string&#xa;country:string" style="text;align=left;verticalAlign=top;spacingLeft=4;spacingRight=4;overflow=hidden;rotatable=0;points=[[0,0.5],[1,0.5]];portConstraint=eastwest;arcSize=20;fontSize=21;" parent="0E97d4MEge5TzQr-1SJ9-40" vertex="1">
          <mxGeometry y="96" width="200" height="28" as="geometry" />
        </mxCell>
        <mxCell id="0E97d4MEge5TzQr-1SJ9-46" value="gender:string" style="text;align=left;verticalAlign=top;spacingLeft=4;spacingRight=4;overflow=hidden;rotatable=0;points=[[0,0.5],[1,0.5]];portConstraint=eastwest;arcSize=20;fontSize=21;" parent="0E97d4MEge5TzQr-1SJ9-40" vertex="1">
          <mxGeometry y="140" width="200" height="28" as="geometry" />
        </mxCell>
        <mxCell id="0E97d4MEge5TzQr-1SJ9-47" value="national_Id:int" style="text;strokeColor=none;fillColor=none;align=left;verticalAlign=top;spacingLeft=4;spacingRight=4;overflow=hidden;rotatable=0;points=[[0,0.5],[1,0.5]];portConstraint=eastwest;whiteSpace=wrap;html=1;arcSize=20;fontSize=21;" parent="0E97d4MEge5TzQr-1SJ9-40" vertex="1">
          <mxGeometry y="160" width="200" height="26" as="geometry" />
        </mxCell>
        <mxCell id="0E97d4MEge5TzQr-1SJ9-48" value="region:string" style="text;strokeColor=none;fillColor=none;align=left;verticalAlign=top;spacingLeft=4;spacingRight=4;overflow=hidden;rotatable=0;points=[[0,0.5],[1,0.5]];portConstraint=eastwest;whiteSpace=wrap;html=1;arcSize=20;fontSize=21;" parent="0E97d4MEge5TzQr-1SJ9-40" vertex="1">
          <mxGeometry y="180" width="240" height="26" as="geometry" />
        </mxCell>
        <mxCell id="0E97d4MEge5TzQr-1SJ9-49" value="regionCodeNumber:string" style="text;strokeColor=none;fillColor=none;align=left;verticalAlign=top;spacingLeft=4;spacingRight=4;overflow=hidden;rotatable=0;points=[[0,0.5],[1,0.5]];portConstraint=eastwest;whiteSpace=wrap;html=1;arcSize=20;fontSize=21;" parent="0E97d4MEge5TzQr-1SJ9-40" vertex="1">
          <mxGeometry y="206" width="240" height="26" as="geometry" />
        </mxCell>
        <mxCell id="0E97d4MEge5TzQr-1SJ9-50" value="Payment" style="swimlane;whiteSpace=wrap;html=1;arcSize=20;fontSize=21;" parent="1" vertex="1">
          <mxGeometry x="820" y="-10" width="205" height="240" as="geometry" />
        </mxCell>
        <mxCell id="0E97d4MEge5TzQr-1SJ9-51" value="p_id:int" style="text;align=left;verticalAlign=top;spacingLeft=4;spacingRight=4;overflow=hidden;rotatable=0;points=[[0,0.5],[1,0.5]];portConstraint=eastwest;arcSize=20;fontSize=21;" parent="0E97d4MEge5TzQr-1SJ9-50" vertex="1">
          <mxGeometry y="22" width="200" height="28" as="geometry" />
        </mxCell>
        <mxCell id="0E97d4MEge5TzQr-1SJ9-52" value="payment method" style="text;align=left;verticalAlign=top;spacingLeft=4;spacingRight=4;overflow=hidden;rotatable=0;points=[[0,0.5],[1,0.5]];portConstraint=eastwest;arcSize=20;fontSize=21;" parent="0E97d4MEge5TzQr-1SJ9-50" vertex="1">
          <mxGeometry y="46" width="200" height="28" as="geometry" />
        </mxCell>
        <mxCell id="0E97d4MEge5TzQr-1SJ9-53" value="payment amount" style="text;align=left;verticalAlign=top;spacingLeft=4;spacingRight=4;overflow=hidden;rotatable=0;points=[[0,0.5],[1,0.5]];portConstraint=eastwest;arcSize=20;fontSize=21;" parent="0E97d4MEge5TzQr-1SJ9-50" vertex="1">
          <mxGeometry y="70" width="200" height="28" as="geometry" />
        </mxCell>
        <mxCell id="0E97d4MEge5TzQr-1SJ9-54" value="payment date" style="text;align=left;verticalAlign=top;spacingLeft=4;spacingRight=4;overflow=hidden;rotatable=0;points=[[0,0.5],[1,0.5]];portConstraint=eastwest;arcSize=20;fontSize=21;" parent="0E97d4MEge5TzQr-1SJ9-50" vertex="1">
          <mxGeometry y="98" width="200" height="28" as="geometry" />
        </mxCell>
        <mxCell id="0E97d4MEge5TzQr-1SJ9-55" value="paid_to:string" style="text;align=left;verticalAlign=top;spacingLeft=4;spacingRight=4;overflow=hidden;rotatable=0;points=[[0,0.5],[1,0.5]];portConstraint=eastwest;arcSize=20;fontSize=21;" parent="0E97d4MEge5TzQr-1SJ9-50" vertex="1">
          <mxGeometry x="2.5" y="126" width="200" height="28" as="geometry" />
        </mxCell>
        <mxCell id="0E97d4MEge5TzQr-1SJ9-56" value="customerId:string" style="text;align=left;verticalAlign=top;spacingLeft=4;spacingRight=4;overflow=hidden;rotatable=0;points=[[0,0.5],[1,0.5]];portConstraint=eastwest;arcSize=20;fontSize=21;" parent="0E97d4MEge5TzQr-1SJ9-50" vertex="1">
          <mxGeometry y="154" width="200" height="28" as="geometry" />
        </mxCell>
        <mxCell id="0E97d4MEge5TzQr-1SJ9-57" value="card_id:int" style="text;align=left;verticalAlign=top;spacingLeft=4;spacingRight=4;overflow=hidden;rotatable=0;points=[[0,0.5],[1,0.5]];portConstraint=eastwest;arcSize=20;fontSize=21;" parent="0E97d4MEge5TzQr-1SJ9-50" vertex="1">
          <mxGeometry x="2.5" y="182" width="200" height="28" as="geometry" />
        </mxCell>
        <mxCell id="0E97d4MEge5TzQr-1SJ9-58" value="currency:string" style="text;strokeColor=none;fillColor=none;align=left;verticalAlign=top;spacingLeft=4;spacingRight=4;overflow=hidden;rotatable=0;points=[[0,0.5],[1,0.5]];portConstraint=eastwest;whiteSpace=wrap;html=1;arcSize=20;fontSize=21;" parent="0E97d4MEge5TzQr-1SJ9-50" vertex="1">
          <mxGeometry y="210" width="200" height="26" as="geometry" />
        </mxCell>
        <mxCell id="0E97d4MEge5TzQr-1SJ9-59" value="Guest" style="swimlane;whiteSpace=wrap;html=1;arcSize=20;fontSize=21;" parent="1" vertex="1">
          <mxGeometry x="1300" y="360" width="210" height="200" as="geometry" />
        </mxCell>
        <mxCell id="0E97d4MEge5TzQr-1SJ9-60" value="g_name:string" style="text;align=left;verticalAlign=top;spacingLeft=4;spacingRight=4;overflow=hidden;rotatable=0;points=[[0,0.5],[1,0.5]];portConstraint=eastwest;arcSize=20;fontSize=21;" parent="0E97d4MEge5TzQr-1SJ9-59" vertex="1">
          <mxGeometry y="20" width="200" height="28" as="geometry" />
        </mxCell>
        <mxCell id="0E97d4MEge5TzQr-1SJ9-61" value="g_bdate:date" style="text;align=left;verticalAlign=top;spacingLeft=4;spacingRight=4;overflow=hidden;rotatable=0;points=[[0,0.5],[1,0.5]];portConstraint=eastwest;arcSize=20;fontSize=21;" parent="0E97d4MEge5TzQr-1SJ9-59" vertex="1">
          <mxGeometry y="48" width="200" height="28" as="geometry" />
        </mxCell>
        <mxCell id="0E97d4MEge5TzQr-1SJ9-62" value="phone:int" style="text;align=left;verticalAlign=top;spacingLeft=4;spacingRight=4;overflow=hidden;rotatable=0;points=[[0,0.5],[1,0.5]];portConstraint=eastwest;arcSize=20;fontSize=21;" parent="0E97d4MEge5TzQr-1SJ9-59" vertex="1">
          <mxGeometry y="76" width="200" height="28" as="geometry" />
        </mxCell>
        <mxCell id="0E97d4MEge5TzQr-1SJ9-63" value="reservation_id:string" style="text;align=left;verticalAlign=top;spacingLeft=4;spacingRight=4;overflow=hidden;rotatable=0;points=[[0,0.5],[1,0.5]];portConstraint=eastwest;arcSize=20;fontSize=21;" parent="0E97d4MEge5TzQr-1SJ9-59" vertex="1">
          <mxGeometry y="104" width="210" height="32" as="geometry" />
        </mxCell>
        <mxCell id="0E97d4MEge5TzQr-1SJ9-64" value="p_id:string" style="text;align=left;verticalAlign=top;spacingLeft=4;spacingRight=4;overflow=hidden;rotatable=0;points=[[0,0.5],[1,0.5]];portConstraint=eastwest;arcSize=20;fontSize=21;" parent="0E97d4MEge5TzQr-1SJ9-59" vertex="1">
          <mxGeometry y="136" width="210" height="28" as="geometry" />
        </mxCell>
        <mxCell id="0E97d4MEge5TzQr-1SJ9-65" value="g_id:string" style="text;strokeColor=none;fillColor=none;align=left;verticalAlign=top;spacingLeft=4;spacingRight=4;overflow=hidden;rotatable=0;points=[[0,0.5],[1,0.5]];portConstraint=eastwest;whiteSpace=wrap;html=1;arcSize=20;fontSize=21;" parent="0E97d4MEge5TzQr-1SJ9-59" vertex="1">
          <mxGeometry y="164" width="210" height="26" as="geometry" />
        </mxCell>
        <mxCell id="0E97d4MEge5TzQr-1SJ9-66" value="Hotel" style="swimlane;whiteSpace=wrap;html=1;arcSize=20;fontSize=21;" parent="1" vertex="1">
          <mxGeometry x="890" y="820" width="200" height="360" as="geometry" />
        </mxCell>
        <mxCell id="0E97d4MEge5TzQr-1SJ9-67" value="hotel_id:string" style="text;align=left;verticalAlign=top;spacingLeft=4;spacingRight=4;overflow=hidden;rotatable=0;points=[[0,0.5],[1,0.5]];portConstraint=eastwest;arcSize=20;fontSize=21;" parent="0E97d4MEge5TzQr-1SJ9-66" vertex="1">
          <mxGeometry y="22" width="200" height="28" as="geometry" />
        </mxCell>
        <mxCell id="0E97d4MEge5TzQr-1SJ9-68" value="hotel_Name:string" style="text;strokeColor=none;fillColor=none;align=left;verticalAlign=top;spacingLeft=4;spacingRight=4;overflow=hidden;rotatable=0;points=[[0,0.5],[1,0.5]];portConstraint=eastwest;whiteSpace=wrap;html=1;arcSize=20;fontSize=21;" parent="0E97d4MEge5TzQr-1SJ9-66" vertex="1">
          <mxGeometry y="78" width="200" height="26" as="geometry" />
        </mxCell>
        <mxCell id="0E97d4MEge5TzQr-1SJ9-69" value="accommodation_Id:string" style="text;strokeColor=none;fillColor=none;align=left;verticalAlign=top;spacingLeft=4;spacingRight=4;overflow=hidden;rotatable=0;points=[[0,0.5],[1,0.5]];portConstraint=eastwest;whiteSpace=wrap;html=1;arcSize=20;fontSize=21;" parent="0E97d4MEge5TzQr-1SJ9-66" vertex="1">
          <mxGeometry y="104" width="200" height="26" as="geometry" />
        </mxCell>
        <mxCell id="0E97d4MEge5TzQr-1SJ9-70" value="total_rooms:int" style="text;strokeColor=none;fillColor=none;align=left;verticalAlign=top;spacingLeft=4;spacingRight=4;overflow=hidden;rotatable=0;points=[[0,0.5],[1,0.5]];portConstraint=eastwest;whiteSpace=wrap;html=1;arcSize=20;fontSize=21;" parent="0E97d4MEge5TzQr-1SJ9-66" vertex="1">
          <mxGeometry y="130" width="200" height="26" as="geometry" />
        </mxCell>
        <mxCell id="0E97d4MEge5TzQr-1SJ9-71" value="check_in time:date" style="text;align=left;verticalAlign=top;spacingLeft=4;spacingRight=4;overflow=hidden;rotatable=0;points=[[0,0.5],[1,0.5]];portConstraint=eastwest;arcSize=20;fontSize=21;" parent="0E97d4MEge5TzQr-1SJ9-66" vertex="1">
          <mxGeometry y="156" width="200" height="28" as="geometry" />
        </mxCell>
        <mxCell id="0E97d4MEge5TzQr-1SJ9-72" value="check_out time:date" style="text;align=left;verticalAlign=top;spacingLeft=4;spacingRight=4;overflow=hidden;rotatable=0;points=[[0,0.5],[1,0.5]];portConstraint=eastwest;arcSize=20;fontSize=21;" parent="0E97d4MEge5TzQr-1SJ9-66" vertex="1">
          <mxGeometry y="184" width="200" height="28" as="geometry" />
        </mxCell>
        <mxCell id="0E97d4MEge5TzQr-1SJ9-73" value="hotel_Rating:string" style="text;strokeColor=none;fillColor=none;align=left;verticalAlign=top;spacingLeft=4;spacingRight=4;overflow=hidden;rotatable=0;points=[[0,0.5],[1,0.5]];portConstraint=eastwest;whiteSpace=wrap;html=1;arcSize=20;fontSize=21;" parent="0E97d4MEge5TzQr-1SJ9-66" vertex="1">
          <mxGeometry y="212" width="200" height="26" as="geometry" />
        </mxCell>
        <mxCell id="0E97d4MEge5TzQr-1SJ9-74" value="hotel_city:string" style="text;strokeColor=none;fillColor=none;align=left;verticalAlign=top;spacingLeft=4;spacingRight=4;overflow=hidden;rotatable=0;points=[[0,0.5],[1,0.5]];portConstraint=eastwest;whiteSpace=wrap;html=1;arcSize=20;fontSize=21;" parent="0E97d4MEge5TzQr-1SJ9-66" vertex="1">
          <mxGeometry y="238" width="200" height="26" as="geometry" />
        </mxCell>
        <mxCell id="0E97d4MEge5TzQr-1SJ9-75" value="hotel_region:string" style="text;strokeColor=none;fillColor=none;align=left;verticalAlign=top;spacingLeft=4;spacingRight=4;overflow=hidden;rotatable=0;points=[[0,0.5],[1,0.5]];portConstraint=eastwest;whiteSpace=wrap;html=1;arcSize=20;fontSize=21;" parent="0E97d4MEge5TzQr-1SJ9-66" vertex="1">
          <mxGeometry y="264" width="200" height="26" as="geometry" />
        </mxCell>
        <mxCell id="0E97d4MEge5TzQr-1SJ9-76" value="hotel_address:string" style="text;strokeColor=none;fillColor=none;align=left;verticalAlign=top;spacingLeft=4;spacingRight=4;overflow=hidden;rotatable=0;points=[[0,0.5],[1,0.5]];portConstraint=eastwest;whiteSpace=wrap;html=1;arcSize=20;fontSize=21;" parent="0E97d4MEge5TzQr-1SJ9-66" vertex="1">
          <mxGeometry y="50" width="200" height="26" as="geometry" />
        </mxCell>
        <mxCell id="0E97d4MEge5TzQr-1SJ9-77" value="" style="endArrow=none;html=1;rounded=0;exitX=0.367;exitY=0.867;exitDx=0;exitDy=0;exitPerimeter=0;arcSize=20;fontSize=21;" parent="1" source="0E97d4MEge5TzQr-1SJ9-111" edge="1">
          <mxGeometry width="50" height="50" relative="1" as="geometry">
            <mxPoint x="120" y="550" as="sourcePoint" />
            <mxPoint x="120" y="380" as="targetPoint" />
          </mxGeometry>
        </mxCell>
        <mxCell id="0E97d4MEge5TzQr-1SJ9-78" value="" style="endArrow=none;html=1;rounded=0;exitX=0.5;exitY=0;exitDx=0;exitDy=0;entryX=0.5;entryY=1;entryDx=0;entryDy=0;arcSize=20;fontSize=21;" parent="1" source="0E97d4MEge5TzQr-1SJ9-26" target="0E97d4MEge5TzQr-1SJ9-20" edge="1">
          <mxGeometry width="50" height="50" relative="1" as="geometry">
            <mxPoint x="70" y="700" as="sourcePoint" />
            <mxPoint x="120" y="650" as="targetPoint" />
          </mxGeometry>
        </mxCell>
        <mxCell id="0E97d4MEge5TzQr-1SJ9-79" value="" style="endArrow=none;html=1;rounded=0;exitX=0.992;exitY=0.274;exitDx=0;exitDy=0;exitPerimeter=0;entryX=-0.008;entryY=-0.03;entryDx=0;entryDy=0;entryPerimeter=0;arcSize=20;fontSize=21;" parent="1" source="0E97d4MEge5TzQr-1SJ9-15" target="0E97d4MEge5TzQr-1SJ9-11" edge="1">
          <mxGeometry width="50" height="50" relative="1" as="geometry">
            <mxPoint x="-10" y="450" as="sourcePoint" />
            <mxPoint x="40" y="400" as="targetPoint" />
          </mxGeometry>
        </mxCell>
        <mxCell id="0E97d4MEge5TzQr-1SJ9-80" value="" style="endArrow=none;html=1;rounded=0;exitX=1;exitY=1;exitDx=0;exitDy=0;edgeStyle=elbowEdgeStyle;entryX=0;entryY=0.5;entryDx=0;entryDy=0;arcSize=20;fontSize=21;" parent="1" source="0E97d4MEge5TzQr-1SJ9-109" target="0E97d4MEge5TzQr-1SJ9-10" edge="1">
          <mxGeometry width="50" height="50" relative="1" as="geometry">
            <mxPoint x="860" y="900" as="sourcePoint" />
            <mxPoint y="350" as="targetPoint" />
            <Array as="points">
              <mxPoint x="-40" y="620" />
            </Array>
          </mxGeometry>
        </mxCell>
        <mxCell id="0E97d4MEge5TzQr-1SJ9-81" value="" style="endArrow=none;html=1;rounded=0;exitX=1;exitY=0.5;exitDx=0;exitDy=0;arcSize=20;fontSize=21;" parent="1" source="0E97d4MEge5TzQr-1SJ9-9" edge="1">
          <mxGeometry width="50" height="50" relative="1" as="geometry">
            <mxPoint x="1160" y="330" as="sourcePoint" />
            <mxPoint x="990" y="280" as="targetPoint" />
          </mxGeometry>
        </mxCell>
        <mxCell id="0E97d4MEge5TzQr-1SJ9-82" value="" style="endArrow=none;dashed=1;html=1;rounded=0;dashPattern=8 8;exitX=0.25;exitY=0;exitDx=0;exitDy=0;arcSize=20;fontSize=21;" parent="1" source="0E97d4MEge5TzQr-1SJ9-33" edge="1">
          <mxGeometry width="50" height="50" relative="1" as="geometry">
            <mxPoint x="680" y="340" as="sourcePoint" />
            <mxPoint x="650" y="280" as="targetPoint" />
          </mxGeometry>
        </mxCell>
        <mxCell id="0E97d4MEge5TzQr-1SJ9-83" value="" style="endArrow=none;html=1;rounded=0;exitX=0.992;exitY=0.946;exitDx=0;exitDy=0;entryX=1;entryY=1;entryDx=0;entryDy=0;exitPerimeter=0;arcSize=20;fontSize=21;" parent="1" target="0E97d4MEge5TzQr-1SJ9-145" edge="1">
          <mxGeometry width="50" height="50" relative="1" as="geometry">
            <mxPoint x="798.4000000000001" y="508.48800000000006" as="sourcePoint" />
            <mxPoint x="1000" y="440" as="targetPoint" />
          </mxGeometry>
        </mxCell>
        <mxCell id="0E97d4MEge5TzQr-1SJ9-85" value="Accommodation" style="swimlane;whiteSpace=wrap;html=1;arcSize=20;fontSize=21;" parent="1" vertex="1">
          <mxGeometry x="1190" y="830" width="200" height="132" as="geometry" />
        </mxCell>
        <mxCell id="0E97d4MEge5TzQr-1SJ9-86" value="accommodation_Id:string" style="text;strokeColor=none;fillColor=none;align=left;verticalAlign=top;spacingLeft=4;spacingRight=4;overflow=hidden;rotatable=0;points=[[0,0.5],[1,0.5]];portConstraint=eastwest;whiteSpace=wrap;html=1;arcSize=20;fontSize=21;" parent="0E97d4MEge5TzQr-1SJ9-85" vertex="1">
          <mxGeometry y="24" width="200" height="26" as="geometry" />
        </mxCell>
        <mxCell id="0E97d4MEge5TzQr-1SJ9-87" value="room_type:string" style="text;align=left;verticalAlign=top;spacingLeft=4;spacingRight=4;overflow=hidden;rotatable=0;points=[[0,0.5],[1,0.5]];portConstraint=eastwest;arcSize=20;fontSize=21;" parent="0E97d4MEge5TzQr-1SJ9-85" vertex="1">
          <mxGeometry y="50" width="200" height="28" as="geometry" />
        </mxCell>
        <mxCell id="0E97d4MEge5TzQr-1SJ9-88" value="price per night:double" style="text;align=left;verticalAlign=top;spacingLeft=4;spacingRight=4;overflow=hidden;rotatable=0;points=[[0,0.5],[1,0.5]];portConstraint=eastwest;arcSize=20;fontSize=21;" parent="0E97d4MEge5TzQr-1SJ9-85" vertex="1">
          <mxGeometry y="78" width="200" height="28" as="geometry" />
        </mxCell>
        <mxCell id="0E97d4MEge5TzQr-1SJ9-89" value="amenites:string" style="text;strokeColor=none;fillColor=none;align=left;verticalAlign=top;spacingLeft=4;spacingRight=4;overflow=hidden;rotatable=0;points=[[0,0.5],[1,0.5]];portConstraint=eastwest;whiteSpace=wrap;html=1;arcSize=20;fontSize=21;" parent="0E97d4MEge5TzQr-1SJ9-85" vertex="1">
          <mxGeometry y="106" width="200" height="26" as="geometry" />
        </mxCell>
        <mxCell id="0E97d4MEge5TzQr-1SJ9-90" value="" style="endArrow=none;html=1;rounded=0;exitX=0.5;exitY=0;exitDx=0;exitDy=0;edgeStyle=elbowEdgeStyle;entryX=1.003;entryY=0.175;entryDx=0;entryDy=0;entryPerimeter=0;arcSize=20;fontSize=21;" parent="1" source="0E97d4MEge5TzQr-1SJ9-85" edge="1">
          <mxGeometry width="50" height="50" relative="1" as="geometry">
            <mxPoint x="950" y="940" as="sourcePoint" />
            <mxPoint x="1090.6" y="874.9000000000001" as="targetPoint" />
          </mxGeometry>
        </mxCell>
        <mxCell id="0E97d4MEge5TzQr-1SJ9-91" value="Attraction" style="swimlane;whiteSpace=wrap;html=1;arcSize=20;fontSize=21;" parent="1" vertex="1">
          <mxGeometry x="-290" y="10" width="200" height="160" as="geometry" />
        </mxCell>
        <mxCell id="0E97d4MEge5TzQr-1SJ9-92" value="a_id:string" style="text;align=left;verticalAlign=top;spacingLeft=4;spacingRight=4;overflow=hidden;rotatable=0;points=[[0,0.5],[1,0.5]];portConstraint=eastwest;arcSize=20;fontSize=21;" parent="0E97d4MEge5TzQr-1SJ9-91" vertex="1">
          <mxGeometry y="24" width="200" height="28" as="geometry" />
        </mxCell>
        <mxCell id="0E97d4MEge5TzQr-1SJ9-93" value="a_Location:string" style="text;strokeColor=none;fillColor=none;align=left;verticalAlign=top;spacingLeft=4;spacingRight=4;overflow=hidden;rotatable=0;points=[[0,0.5],[1,0.5]];portConstraint=eastwest;whiteSpace=wrap;html=1;arcSize=20;fontSize=21;" parent="0E97d4MEge5TzQr-1SJ9-91" vertex="1">
          <mxGeometry y="54" width="200" height="26" as="geometry" />
        </mxCell>
        <mxCell id="0E97d4MEge5TzQr-1SJ9-94" value="activities:string" style="text;strokeColor=none;fillColor=none;align=left;verticalAlign=top;spacingLeft=4;spacingRight=4;overflow=hidden;rotatable=0;points=[[0,0.5],[1,0.5]];portConstraint=eastwest;whiteSpace=wrap;html=1;arcSize=20;fontSize=21;" parent="0E97d4MEge5TzQr-1SJ9-91" vertex="1">
          <mxGeometry y="80" width="200" height="26" as="geometry" />
        </mxCell>
        <mxCell id="0E97d4MEge5TzQr-1SJ9-95" value="amenites:string" style="text;strokeColor=none;fillColor=none;align=left;verticalAlign=top;spacingLeft=4;spacingRight=4;overflow=hidden;rotatable=0;points=[[0,0.5],[1,0.5]];portConstraint=eastwest;whiteSpace=wrap;html=1;arcSize=20;fontSize=21;" parent="0E97d4MEge5TzQr-1SJ9-91" vertex="1">
          <mxGeometry y="106" width="200" height="26" as="geometry" />
        </mxCell>
        <mxCell id="0E97d4MEge5TzQr-1SJ9-96" value="a_Status:string" style="text;strokeColor=none;fillColor=none;align=left;verticalAlign=top;spacingLeft=4;spacingRight=4;overflow=hidden;rotatable=0;points=[[0,0.5],[1,0.5]];portConstraint=eastwest;whiteSpace=wrap;html=1;arcSize=20;fontSize=21;" parent="0E97d4MEge5TzQr-1SJ9-91" vertex="1">
          <mxGeometry y="132" width="200" height="26" as="geometry" />
        </mxCell>
        <mxCell id="0E97d4MEge5TzQr-1SJ9-97" value="Seats" style="swimlane;whiteSpace=wrap;html=1;arcSize=20;fontSize=21;" parent="1" vertex="1">
          <mxGeometry x="350" y="660" width="200" height="220" as="geometry" />
        </mxCell>
        <mxCell id="0E97d4MEge5TzQr-1SJ9-98" value="seat_economy:string" style="text;align=left;verticalAlign=top;spacingLeft=4;spacingRight=4;overflow=hidden;rotatable=0;points=[[0,0.5],[1,0.5]];portConstraint=eastwest;arcSize=20;fontSize=21;" parent="0E97d4MEge5TzQr-1SJ9-97" vertex="1">
          <mxGeometry y="20" width="200" height="28" as="geometry" />
        </mxCell>
        <mxCell id="0E97d4MEge5TzQr-1SJ9-99" value="seat_id:string" style="text;align=left;verticalAlign=top;spacingLeft=4;spacingRight=4;overflow=hidden;rotatable=0;points=[[0,0.5],[1,0.5]];portConstraint=eastwest;arcSize=20;fontSize=21;" parent="0E97d4MEge5TzQr-1SJ9-97" vertex="1">
          <mxGeometry y="76" width="200" height="28" as="geometry" />
        </mxCell>
        <mxCell id="0E97d4MEge5TzQr-1SJ9-100" value="flight_id:string" style="text;align=left;verticalAlign=top;spacingLeft=4;spacingRight=4;overflow=hidden;rotatable=0;points=[[0,0.5],[1,0.5]];portConstraint=eastwest;arcSize=20;fontSize=21;" parent="0E97d4MEge5TzQr-1SJ9-97" vertex="1">
          <mxGeometry y="48" width="200" height="28" as="geometry" />
        </mxCell>
        <mxCell id="0E97d4MEge5TzQr-1SJ9-101" value="customerId:string" style="text;align=left;verticalAlign=top;spacingLeft=4;spacingRight=4;overflow=hidden;rotatable=0;points=[[0,0.5],[1,0.5]];portConstraint=eastwest;arcSize=20;fontSize=21;" parent="0E97d4MEge5TzQr-1SJ9-97" vertex="1">
          <mxGeometry y="104" width="200" height="28" as="geometry" />
        </mxCell>
        <mxCell id="0E97d4MEge5TzQr-1SJ9-102" value="&lt;font&gt;1..*&lt;/font&gt;" style="text;strokeColor=none;align=center;fillColor=none;html=1;verticalAlign=middle;whiteSpace=wrap;rounded=0;arcSize=20;fontSize=21;" parent="1" vertex="1">
          <mxGeometry x="-100" y="60" width="60" height="30" as="geometry" />
        </mxCell>
        <mxCell id="0E97d4MEge5TzQr-1SJ9-103" value="" style="endArrow=none;html=1;rounded=0;entryX=-0.011;entryY=-0.082;entryDx=0;entryDy=0;entryPerimeter=0;arcSize=20;fontSize=21;" parent="1" edge="1">
          <mxGeometry width="50" height="50" relative="1" as="geometry">
            <mxPoint x="-90" y="90" as="sourcePoint" />
            <mxPoint x="29.340000000000146" y="89.53999999999996" as="targetPoint" />
          </mxGeometry>
        </mxCell>
        <mxCell id="0E97d4MEge5TzQr-1SJ9-104" value="&lt;font&gt;1&lt;/font&gt;" style="text;strokeColor=none;align=center;fillColor=none;html=1;verticalAlign=middle;whiteSpace=wrap;rounded=0;arcSize=20;fontSize=21;" parent="1" vertex="1">
          <mxGeometry x="-100" y="260" width="60" height="30" as="geometry" />
        </mxCell>
        <mxCell id="0E97d4MEge5TzQr-1SJ9-105" value="&lt;font&gt;1..*&lt;/font&gt;" style="text;strokeColor=none;align=center;fillColor=none;html=1;verticalAlign=middle;whiteSpace=wrap;rounded=0;arcSize=20;fontSize=21;" parent="1" vertex="1">
          <mxGeometry x="-30" y="260" width="60" height="30" as="geometry" />
        </mxCell>
        <mxCell id="0E97d4MEge5TzQr-1SJ9-108" value="&lt;font&gt;1..*&lt;/font&gt;" style="text;strokeColor=none;align=center;fillColor=none;html=1;verticalAlign=middle;whiteSpace=wrap;rounded=0;arcSize=20;fontSize=21;" parent="1" vertex="1">
          <mxGeometry x="-30" y="300" width="60" height="30" as="geometry" />
        </mxCell>
        <mxCell id="0E97d4MEge5TzQr-1SJ9-109" value="&lt;font&gt;1&lt;/font&gt;" style="text;strokeColor=none;align=center;fillColor=none;html=1;verticalAlign=middle;whiteSpace=wrap;rounded=0;arcSize=20;fontSize=21;" parent="1" vertex="1">
          <mxGeometry x="830" y="870" width="60" height="30" as="geometry" />
        </mxCell>
        <mxCell id="0E97d4MEge5TzQr-1SJ9-110" value="&lt;font&gt;1..*&lt;/font&gt;" style="text;strokeColor=none;align=center;fillColor=none;html=1;verticalAlign=middle;whiteSpace=wrap;rounded=0;arcSize=20;fontSize=21;" parent="1" vertex="1">
          <mxGeometry x="110" y="380" width="60" height="30" as="geometry" />
        </mxCell>
        <mxCell id="0E97d4MEge5TzQr-1SJ9-111" value="&lt;font&gt;1&lt;/font&gt;" style="text;strokeColor=none;align=center;fillColor=none;html=1;verticalAlign=middle;whiteSpace=wrap;rounded=0;arcSize=20;fontSize=21;" parent="1" vertex="1">
          <mxGeometry x="100" y="430" width="60" height="30" as="geometry" />
        </mxCell>
        <mxCell id="0E97d4MEge5TzQr-1SJ9-112" value="&lt;font&gt;1&lt;/font&gt;" style="text;strokeColor=none;align=center;fillColor=none;html=1;verticalAlign=middle;whiteSpace=wrap;rounded=0;arcSize=20;fontSize=21;" parent="1" vertex="1">
          <mxGeometry x="1070" y="880" width="60" height="30" as="geometry" />
        </mxCell>
        <mxCell id="0E97d4MEge5TzQr-1SJ9-113" value="&lt;font&gt;1..*&lt;/font&gt;" style="text;strokeColor=none;align=center;fillColor=none;html=1;verticalAlign=middle;whiteSpace=wrap;rounded=0;arcSize=20;fontSize=21;" parent="1" vertex="1">
          <mxGeometry x="1140" y="880" width="60" height="30" as="geometry" />
        </mxCell>
        <mxCell id="0E97d4MEge5TzQr-1SJ9-114" value="&lt;font&gt;1..*&lt;/font&gt;" style="text;strokeColor=none;align=center;fillColor=none;html=1;verticalAlign=middle;whiteSpace=wrap;rounded=0;arcSize=20;fontSize=21;" parent="1" vertex="1">
          <mxGeometry x="300" y="790" width="60" height="30" as="geometry" />
        </mxCell>
        <mxCell id="0E97d4MEge5TzQr-1SJ9-115" value="&lt;font&gt;1&lt;/font&gt;" style="text;strokeColor=none;align=center;fillColor=none;html=1;verticalAlign=middle;whiteSpace=wrap;rounded=0;arcSize=20;fontSize=21;" parent="1" vertex="1">
          <mxGeometry x="130" y="672" width="60" height="30" as="geometry" />
        </mxCell>
        <mxCell id="0E97d4MEge5TzQr-1SJ9-116" value="" style="endArrow=none;html=1;rounded=0;entryX=0;entryY=0.5;entryDx=0;entryDy=0;edgeStyle=elbowEdgeStyle;elbow=vertical;arcSize=20;fontSize=21;" parent="1" edge="1">
          <mxGeometry width="50" height="50" relative="1" as="geometry">
            <mxPoint x="245" y="800" as="sourcePoint" />
            <mxPoint x="350" y="778" as="targetPoint" />
          </mxGeometry>
        </mxCell>
        <mxCell id="0E97d4MEge5TzQr-1SJ9-117" value="&lt;font&gt;1..*&lt;/font&gt;" style="text;strokeColor=none;align=center;fillColor=none;html=1;verticalAlign=middle;whiteSpace=wrap;rounded=0;arcSize=20;fontSize=21;" parent="1" vertex="1">
          <mxGeometry x="750" y="160" width="60" height="50" as="geometry" />
        </mxCell>
        <mxCell id="0E97d4MEge5TzQr-1SJ9-118" value="" style="endArrow=none;html=1;rounded=0;edgeStyle=elbowEdgeStyle;elbow=vertical;entryX=0.5;entryY=1;entryDx=0;entryDy=0;arcSize=20;fontSize=21;" parent="1" source="0E97d4MEge5TzQr-1SJ9-33" target="0E97d4MEge5TzQr-1SJ9-50" edge="1">
          <mxGeometry width="50" height="50" relative="1" as="geometry">
            <mxPoint x="580" y="360" as="sourcePoint" />
            <mxPoint x="890" y="230" as="targetPoint" />
            <Array as="points">
              <mxPoint x="810" y="250" />
            </Array>
          </mxGeometry>
        </mxCell>
        <mxCell id="0E97d4MEge5TzQr-1SJ9-119" value="&lt;font&gt;1..*&lt;/font&gt;" style="text;strokeColor=none;align=center;fillColor=none;html=1;verticalAlign=middle;whiteSpace=wrap;rounded=0;arcSize=20;fontSize=21;" parent="1" vertex="1">
          <mxGeometry x="700" y="320" width="60" height="30" as="geometry" />
        </mxCell>
        <mxCell id="0E97d4MEge5TzQr-1SJ9-120" value="" style="rhombus;whiteSpace=wrap;html=1;arcSize=20;fontSize=21;" parent="1" vertex="1">
          <mxGeometry x="345" y="400" width="80" height="80" as="geometry" />
        </mxCell>
        <mxCell id="0E97d4MEge5TzQr-1SJ9-121" value="" style="endArrow=none;html=1;rounded=0;exitX=1;exitY=0.25;exitDx=0;exitDy=0;entryX=0;entryY=0.5;entryDx=0;entryDy=0;edgeStyle=elbowEdgeStyle;arcSize=20;fontSize=21;" parent="1" source="0E97d4MEge5TzQr-1SJ9-26" target="0E97d4MEge5TzQr-1SJ9-120" edge="1">
          <mxGeometry width="50" height="50" relative="1" as="geometry">
            <mxPoint x="280" y="600" as="sourcePoint" />
            <mxPoint x="330" y="550" as="targetPoint" />
          </mxGeometry>
        </mxCell>
        <mxCell id="0E97d4MEge5TzQr-1SJ9-122" value="" style="endArrow=none;html=1;rounded=0;entryX=0;entryY=0.5;entryDx=0;entryDy=0;exitX=1;exitY=0.5;exitDx=0;exitDy=0;edgeStyle=elbowEdgeStyle;arcSize=20;fontSize=21;" parent="1" source="0E97d4MEge5TzQr-1SJ9-120" target="0E97d4MEge5TzQr-1SJ9-36" edge="1">
          <mxGeometry width="50" height="50" relative="1" as="geometry">
            <mxPoint x="500" y="580" as="sourcePoint" />
            <mxPoint x="730" y="520" as="targetPoint" />
          </mxGeometry>
        </mxCell>
        <mxCell id="0E97d4MEge5TzQr-1SJ9-123" value="" style="endArrow=none;dashed=1;html=1;rounded=0;exitX=0.5;exitY=1;exitDx=0;exitDy=0;edgeStyle=elbowEdgeStyle;entryX=0.448;entryY=0.027;entryDx=0;entryDy=0;entryPerimeter=0;arcSize=20;fontSize=21;" parent="1" source="0E97d4MEge5TzQr-1SJ9-120" target="0E97d4MEge5TzQr-1SJ9-132" edge="1">
          <mxGeometry width="50" height="50" relative="1" as="geometry">
            <mxPoint x="500" y="640" as="sourcePoint" />
            <mxPoint x="570" y="930" as="targetPoint" />
            <Array as="points">
              <mxPoint x="570" y="810" />
            </Array>
          </mxGeometry>
        </mxCell>
        <mxCell id="0E97d4MEge5TzQr-1SJ9-124" value="" style="endArrow=none;html=1;rounded=0;exitX=1;exitY=0.5;exitDx=0;exitDy=0;edgeStyle=elbowEdgeStyle;entryX=0.5;entryY=0;entryDx=0;entryDy=0;arcSize=20;fontSize=21;" parent="1" source="0E97d4MEge5TzQr-1SJ9-36" target="0E97d4MEge5TzQr-1SJ9-125" edge="1">
          <mxGeometry width="50" height="50" relative="1" as="geometry">
            <mxPoint x="910" y="690" as="sourcePoint" />
            <mxPoint x="960" y="640" as="targetPoint" />
            <Array as="points">
              <mxPoint x="890" y="540" />
            </Array>
          </mxGeometry>
        </mxCell>
        <mxCell id="0E97d4MEge5TzQr-1SJ9-125" value="" style="rhombus;whiteSpace=wrap;html=1;arcSize=20;fontSize=21;" parent="1" vertex="1">
          <mxGeometry x="920" y="600" width="80" height="80" as="geometry" />
        </mxCell>
        <mxCell id="0E97d4MEge5TzQr-1SJ9-126" value="" style="endArrow=none;html=1;rounded=0;entryX=0.5;entryY=1;entryDx=0;entryDy=0;exitX=0.75;exitY=0;exitDx=0;exitDy=0;edgeStyle=elbowEdgeStyle;elbow=vertical;arcSize=20;fontSize=21;" parent="1" source="0E97d4MEge5TzQr-1SJ9-85" target="0E97d4MEge5TzQr-1SJ9-125" edge="1">
          <mxGeometry width="50" height="50" relative="1" as="geometry">
            <mxPoint x="1080" y="780" as="sourcePoint" />
            <mxPoint x="1130" y="730" as="targetPoint" />
            <Array as="points">
              <mxPoint x="1050" y="790" />
            </Array>
          </mxGeometry>
        </mxCell>
        <mxCell id="0E97d4MEge5TzQr-1SJ9-127" value="" style="endArrow=none;dashed=1;html=1;rounded=0;exitX=1;exitY=0.5;exitDx=0;exitDy=0;entryX=0;entryY=0.25;entryDx=0;entryDy=0;arcSize=20;fontSize=21;" parent="1" source="0E97d4MEge5TzQr-1SJ9-125" target="0E97d4MEge5TzQr-1SJ9-128" edge="1">
          <mxGeometry width="50" height="50" relative="1" as="geometry">
            <mxPoint x="1090" y="670" as="sourcePoint" />
            <mxPoint x="1140" y="620" as="targetPoint" />
          </mxGeometry>
        </mxCell>
        <mxCell id="0E97d4MEge5TzQr-1SJ9-128" value="&lt;b&gt;HotelReservation&lt;/b&gt;" style="swimlane;fontStyle=0;childLayout=stackLayout;horizontal=1;startSize=26;fillColor=none;horizontalStack=0;resizeParent=1;resizeParentMax=0;resizeLast=0;collapsible=1;marginBottom=0;whiteSpace=wrap;html=1;arcSize=20;fontSize=21;" parent="1" vertex="1">
          <mxGeometry x="1240" y="600" width="210" height="172" as="geometry" />
        </mxCell>
        <mxCell id="0E97d4MEge5TzQr-1SJ9-129" value="accommodation_Id:string" style="text;strokeColor=none;fillColor=none;align=left;verticalAlign=top;spacingLeft=4;spacingRight=4;overflow=hidden;rotatable=0;points=[[0,0.5],[1,0.5]];portConstraint=eastwest;whiteSpace=wrap;html=1;arcSize=20;fontSize=21;" parent="0E97d4MEge5TzQr-1SJ9-128" vertex="1">
          <mxGeometry y="26" width="210" height="26" as="geometry" />
        </mxCell>
        <mxCell id="0E97d4MEge5TzQr-1SJ9-130" value="hotel_reservation_id:string" style="text;strokeColor=none;fillColor=none;align=left;verticalAlign=top;spacingLeft=4;spacingRight=4;overflow=hidden;rotatable=0;points=[[0,0.5],[1,0.5]];portConstraint=eastwest;whiteSpace=wrap;html=1;arcSize=20;fontSize=21;" parent="0E97d4MEge5TzQr-1SJ9-128" vertex="1">
          <mxGeometry y="52" width="210" height="26" as="geometry" />
        </mxCell>
        <mxCell id="0E97d4MEge5TzQr-1SJ9-131" value="reservation_id:string" style="text;align=left;verticalAlign=top;spacingLeft=4;spacingRight=4;overflow=hidden;rotatable=0;points=[[0,0.5],[1,0.5]];portConstraint=eastwest;arcSize=20;fontSize=21;" parent="0E97d4MEge5TzQr-1SJ9-128" vertex="1">
          <mxGeometry y="78" width="210" height="94" as="geometry" />
        </mxCell>
        <mxCell id="0E97d4MEge5TzQr-1SJ9-132" value="FlightReservation" style="swimlane;whiteSpace=wrap;html=1;arcSize=20;fontSize=21;" parent="1" vertex="1">
          <mxGeometry x="470" y="1000" width="210" height="130" as="geometry" />
        </mxCell>
        <mxCell id="0E97d4MEge5TzQr-1SJ9-133" value="no_Of_Seats:int" style="text;align=left;verticalAlign=top;spacingLeft=4;spacingRight=4;overflow=hidden;rotatable=0;points=[[0,0.5],[1,0.5]];portConstraint=eastwest;arcSize=20;fontSize=21;" parent="0E97d4MEge5TzQr-1SJ9-132" vertex="1">
          <mxGeometry y="76" width="200" height="64" as="geometry" />
        </mxCell>
        <mxCell id="0E97d4MEge5TzQr-1SJ9-134" value="flight_Reservation_ID:string" style="text;align=left;verticalAlign=top;spacingLeft=4;spacingRight=4;overflow=hidden;rotatable=0;points=[[0,0.5],[1,0.5]];portConstraint=eastwest;arcSize=20;fontSize=21;" parent="0E97d4MEge5TzQr-1SJ9-132" vertex="1">
          <mxGeometry y="100" width="200" height="30" as="geometry" />
        </mxCell>
        <mxCell id="0E97d4MEge5TzQr-1SJ9-135" value="reservation_id:string" style="text;align=left;verticalAlign=top;spacingLeft=4;spacingRight=4;overflow=hidden;rotatable=0;points=[[0,0.5],[1,0.5]];portConstraint=eastwest;arcSize=20;fontSize=21;" parent="0E97d4MEge5TzQr-1SJ9-132" vertex="1">
          <mxGeometry y="20" width="200" height="32" as="geometry" />
        </mxCell>
        <mxCell id="0E97d4MEge5TzQr-1SJ9-136" value="departureId:string" style="text;strokeColor=none;fillColor=none;align=left;verticalAlign=top;spacingLeft=4;spacingRight=4;overflow=hidden;rotatable=0;points=[[0,0.5],[1,0.5]];portConstraint=eastwest;whiteSpace=wrap;html=1;arcSize=20;fontSize=21;" parent="0E97d4MEge5TzQr-1SJ9-132" vertex="1">
          <mxGeometry y="50" width="210" height="26" as="geometry" />
        </mxCell>
        <mxCell id="0E97d4MEge5TzQr-1SJ9-137" value="" style="endArrow=none;dashed=1;html=1;rounded=0;dashPattern=8 8;arcSize=20;fontSize=21;" parent="1" target="0E97d4MEge5TzQr-1SJ9-138" edge="1">
          <mxGeometry width="50" height="50" relative="1" as="geometry">
            <mxPoint x="1110" y="180" as="sourcePoint" />
            <mxPoint x="1270" y="230" as="targetPoint" />
          </mxGeometry>
        </mxCell>
        <mxCell id="0E97d4MEge5TzQr-1SJ9-138" value="&lt;b&gt;creditCard&lt;/b&gt;" style="swimlane;fontStyle=0;childLayout=stackLayout;horizontal=1;startSize=26;fillColor=none;horizontalStack=0;resizeParent=1;resizeParentMax=0;resizeLast=0;collapsible=1;marginBottom=0;whiteSpace=wrap;html=1;arcSize=20;fontSize=21;" parent="1" vertex="1">
          <mxGeometry x="1310" y="110" width="140" height="130" as="geometry" />
        </mxCell>
        <mxCell id="0E97d4MEge5TzQr-1SJ9-139" value="card_id" style="text;strokeColor=none;fillColor=none;align=left;verticalAlign=top;spacingLeft=4;spacingRight=4;overflow=hidden;rotatable=0;points=[[0,0.5],[1,0.5]];portConstraint=eastwest;whiteSpace=wrap;html=1;arcSize=20;fontSize=21;" parent="0E97d4MEge5TzQr-1SJ9-138" vertex="1">
          <mxGeometry y="26" width="140" height="26" as="geometry" />
        </mxCell>
        <mxCell id="0E97d4MEge5TzQr-1SJ9-140" value="credit:double" style="text;strokeColor=none;fillColor=none;align=left;verticalAlign=top;spacingLeft=4;spacingRight=4;overflow=hidden;rotatable=0;points=[[0,0.5],[1,0.5]];portConstraint=eastwest;whiteSpace=wrap;html=1;arcSize=20;fontSize=21;" parent="0E97d4MEge5TzQr-1SJ9-138" vertex="1">
          <mxGeometry y="52" width="140" height="26" as="geometry" />
        </mxCell>
        <mxCell id="0E97d4MEge5TzQr-1SJ9-141" value="bank_Name" style="text;strokeColor=none;fillColor=none;align=left;verticalAlign=top;spacingLeft=4;spacingRight=4;overflow=hidden;rotatable=0;points=[[0,0.5],[1,0.5]];portConstraint=eastwest;whiteSpace=wrap;html=1;arcSize=20;fontSize=21;" parent="0E97d4MEge5TzQr-1SJ9-138" vertex="1">
          <mxGeometry y="78" width="140" height="26" as="geometry" />
        </mxCell>
        <mxCell id="0E97d4MEge5TzQr-1SJ9-142" value="cvv:int" style="text;strokeColor=none;fillColor=none;align=left;verticalAlign=top;spacingLeft=4;spacingRight=4;overflow=hidden;rotatable=0;points=[[0,0.5],[1,0.5]];portConstraint=eastwest;whiteSpace=wrap;html=1;arcSize=20;fontSize=21;" parent="0E97d4MEge5TzQr-1SJ9-138" vertex="1">
          <mxGeometry y="104" width="140" height="26" as="geometry" />
        </mxCell>
        <mxCell id="0E97d4MEge5TzQr-1SJ9-143" value="&lt;font&gt;1..*&lt;/font&gt;" style="text;strokeColor=none;align=center;fillColor=none;html=1;verticalAlign=middle;whiteSpace=wrap;rounded=0;arcSize=20;fontSize=21;" parent="1" vertex="1">
          <mxGeometry x="930" y="251" width="60" height="30" as="geometry" />
        </mxCell>
        <mxCell id="0E97d4MEge5TzQr-1SJ9-144" value="&lt;font&gt;1..*&lt;/font&gt;" style="text;strokeColor=none;align=center;fillColor=none;html=1;verticalAlign=middle;whiteSpace=wrap;rounded=0;arcSize=20;fontSize=21;" parent="1" vertex="1">
          <mxGeometry x="790" y="480" width="60" height="30" as="geometry" />
        </mxCell>
        <mxCell id="0E97d4MEge5TzQr-1SJ9-145" value="&lt;font&gt;1..*&lt;/font&gt;" style="text;strokeColor=none;align=center;fillColor=none;html=1;verticalAlign=middle;whiteSpace=wrap;rounded=0;arcSize=20;fontSize=21;" parent="1" vertex="1">
          <mxGeometry x="1240" y="480" width="60" height="30" as="geometry" />
        </mxCell>
        <mxCell id="0E97d4MEge5TzQr-1SJ9-146" value="&lt;font&gt;1..*&lt;/font&gt;" style="text;strokeColor=none;align=center;fillColor=none;html=1;verticalAlign=middle;whiteSpace=wrap;rounded=0;arcSize=20;fontSize=21;" parent="1" vertex="1">
          <mxGeometry x="230" y="251" width="60" height="30" as="geometry" />
        </mxCell>
        <mxCell id="0E97d4MEge5TzQr-1SJ9-147" value="&lt;font&gt;1&lt;/font&gt;" style="text;strokeColor=none;align=center;fillColor=none;html=1;verticalAlign=middle;whiteSpace=wrap;rounded=0;arcSize=20;fontSize=21;" parent="1" vertex="1">
          <mxGeometry x="130" y="650" width="60" height="30" as="geometry" />
        </mxCell>
        <mxCell id="0E97d4MEge5TzQr-1SJ9-148" value="&lt;font&gt;1&lt;/font&gt;" style="text;strokeColor=none;align=center;fillColor=none;html=1;verticalAlign=middle;whiteSpace=wrap;rounded=0;arcSize=20;fontSize=21;" parent="1" vertex="1">
          <mxGeometry x="230" y="790" width="60" height="30" as="geometry" />
        </mxCell>
        <mxCell id="0E97d4MEge5TzQr-1SJ9-149" value="&lt;font&gt;1..*&lt;/font&gt;" style="text;strokeColor=none;align=center;fillColor=none;html=1;verticalAlign=middle;whiteSpace=wrap;rounded=0;arcSize=20;fontSize=21;" parent="1" vertex="1">
          <mxGeometry x="540" y="410" width="60" height="30" as="geometry" />
        </mxCell>
        <mxCell id="0E97d4MEge5TzQr-1SJ9-150" value="&lt;font&gt;1..*&lt;/font&gt;" style="text;strokeColor=none;align=center;fillColor=none;html=1;verticalAlign=middle;whiteSpace=wrap;rounded=0;arcSize=20;fontSize=21;" parent="1" vertex="1">
          <mxGeometry x="245" y="750" width="60" height="30" as="geometry" />
        </mxCell>
        <mxCell id="0E97d4MEge5TzQr-1SJ9-151" value="&lt;font&gt;1..*&lt;/font&gt;" style="text;strokeColor=none;align=center;fillColor=none;html=1;verticalAlign=middle;whiteSpace=wrap;rounded=0;arcSize=20;fontSize=21;" parent="1" vertex="1">
          <mxGeometry x="1330" y="800" width="60" height="30" as="geometry" />
        </mxCell>
        <mxCell id="0E97d4MEge5TzQr-1SJ9-152" value="&lt;font&gt;1..*&lt;/font&gt;" style="text;strokeColor=none;align=center;fillColor=none;html=1;verticalAlign=middle;whiteSpace=wrap;rounded=0;arcSize=20;fontSize=21;" parent="1" vertex="1">
          <mxGeometry x="800" y="410" width="60" height="30" as="geometry" />
        </mxCell>
        <mxCell id="0E97d4MEge5TzQr-1SJ9-153" value="&lt;font&gt;1..*&lt;/font&gt;" style="text;strokeColor=none;align=center;fillColor=none;html=1;verticalAlign=middle;whiteSpace=wrap;rounded=0;arcSize=20;fontSize=21;" parent="1" vertex="1">
          <mxGeometry x="-30" y="60" width="60" height="30" as="geometry" />
        </mxCell>
        <mxCell id="0E97d4MEge5TzQr-1SJ9-154" value="" style="endArrow=none;html=1;rounded=0;edgeStyle=elbowEdgeStyle;elbow=vertical;exitX=0.5;exitY=0;exitDx=0;exitDy=0;entryX=1.008;entryY=1.143;entryDx=0;entryDy=0;entryPerimeter=0;arcSize=20;fontSize=21;" parent="1" source="0E97d4MEge5TzQr-1SJ9-40" target="0E97d4MEge5TzQr-1SJ9-55" edge="1">
          <mxGeometry width="50" height="50" relative="1" as="geometry">
            <mxPoint x="1190" y="378" as="sourcePoint" />
            <mxPoint x="1070" y="140" as="targetPoint" />
            <Array as="points">
              <mxPoint x="1100" y="140" />
            </Array>
          </mxGeometry>
        </mxCell>
        <mxCell id="0E97d4MEge5TzQr-1SJ9-155" value="&lt;font&gt;1&lt;/font&gt;" style="text;strokeColor=none;align=center;fillColor=none;html=1;verticalAlign=middle;whiteSpace=wrap;rounded=0;arcSize=20;fontSize=21;" parent="1" vertex="1">
          <mxGeometry x="1100" y="210" width="60" height="30" as="geometry" />
        </mxCell>
        <mxCell id="0E97d4MEge5TzQr-1SJ9-156" value="&lt;font&gt;1..*&lt;/font&gt;" style="text;strokeColor=none;align=center;fillColor=none;html=1;verticalAlign=middle;whiteSpace=wrap;rounded=0;arcSize=20;fontSize=21;" parent="1" vertex="1">
          <mxGeometry x="1030" y="110" width="60" height="30" as="geometry" />
        </mxCell>
        <mxCell id="0E97d4MEge5TzQr-1SJ9-160" value="" style="endArrow=none;html=1;rounded=0;entryX=0;entryY=0.5;entryDx=0;entryDy=0;exitX=1;exitY=0;exitDx=0;exitDy=0;arcSize=20;fontSize=21;" parent="1" source="0E97d4MEge5TzQr-1SJ9-13" target="0E97d4MEge5TzQr-1SJ9-5" edge="1">
          <mxGeometry width="50" height="50" relative="1" as="geometry">
            <mxPoint x="-60" y="120" as="sourcePoint" />
            <mxPoint x="59.340000000000146" y="119.53999999999996" as="targetPoint" />
            <Array as="points">
              <mxPoint x="-30" y="180" />
            </Array>
          </mxGeometry>
        </mxCell>
        <mxCell id="hgge30WViiXJjyIwX5uO-2" value="&lt;b&gt;User&lt;/b&gt;" style="swimlane;fontStyle=0;childLayout=stackLayout;horizontal=1;startSize=26;fillColor=none;horizontalStack=0;resizeParent=1;resizeParentMax=0;resizeLast=0;collapsible=1;marginBottom=0;whiteSpace=wrap;html=1;arcSize=20;fontSize=21;" parent="1" vertex="1">
          <mxGeometry x="2060" y="4" width="200" height="104" as="geometry" />
        </mxCell>
        <mxCell id="hgge30WViiXJjyIwX5uO-3" value="userId:String&lt;span style=&quot;white-space: pre;&quot;&gt;&#x9;&lt;/span&gt;" style="text;strokeColor=none;fillColor=none;align=left;verticalAlign=top;spacingLeft=4;spacingRight=4;overflow=hidden;rotatable=0;points=[[0,0.5],[1,0.5]];portConstraint=eastwest;whiteSpace=wrap;html=1;arcSize=20;fontSize=21;" parent="hgge30WViiXJjyIwX5uO-2" vertex="1">
          <mxGeometry y="26" width="200" height="26" as="geometry" />
        </mxCell>
        <mxCell id="hgge30WViiXJjyIwX5uO-4" value="username:String&lt;span style=&quot;white-space: pre;&quot;&gt;&#x9;&lt;/span&gt;" style="text;strokeColor=none;fillColor=none;align=left;verticalAlign=top;spacingLeft=4;spacingRight=4;overflow=hidden;rotatable=0;points=[[0,0.5],[1,0.5]];portConstraint=eastwest;whiteSpace=wrap;html=1;arcSize=20;fontSize=21;" parent="hgge30WViiXJjyIwX5uO-2" vertex="1">
          <mxGeometry y="52" width="200" height="26" as="geometry" />
        </mxCell>
        <mxCell id="hgge30WViiXJjyIwX5uO-5" value="encryPassword:string" style="text;strokeColor=none;fillColor=none;align=left;verticalAlign=top;spacingLeft=4;spacingRight=4;overflow=hidden;rotatable=0;points=[[0,0.5],[1,0.5]];portConstraint=eastwest;whiteSpace=wrap;html=1;arcSize=20;fontSize=21;" parent="hgge30WViiXJjyIwX5uO-2" vertex="1">
          <mxGeometry y="78" width="200" height="26" as="geometry" />
        </mxCell>
        <mxCell id="hgge30WViiXJjyIwX5uO-7" value="Customer" style="swimlane;whiteSpace=wrap;html=1;arcSize=20;fontSize=21;" parent="1" vertex="1">
          <mxGeometry x="2040" y="206" width="240" height="240" as="geometry" />
        </mxCell>
        <mxCell id="hgge30WViiXJjyIwX5uO-8" value="customerId:string" style="text;align=left;verticalAlign=top;spacingLeft=4;spacingRight=4;overflow=hidden;rotatable=0;points=[[0,0.5],[1,0.5]];portConstraint=eastwest;arcSize=20;fontSize=21;" parent="hgge30WViiXJjyIwX5uO-7" vertex="1">
          <mxGeometry y="20" width="200" height="28" as="geometry" />
        </mxCell>
        <mxCell id="hgge30WViiXJjyIwX5uO-9" value="fName:string&#xa;mName:string&#xa;lName:string&#xa;" style="text;align=left;verticalAlign=top;spacingLeft=4;spacingRight=4;overflow=hidden;rotatable=0;points=[[0,0.5],[1,0.5]];portConstraint=eastwest;arcSize=20;fontSize=21;" parent="hgge30WViiXJjyIwX5uO-7" vertex="1">
          <mxGeometry y="40" width="200" height="50" as="geometry" />
        </mxCell>
        <mxCell id="hgge30WViiXJjyIwX5uO-10" value="bdate:date" style="text;align=left;verticalAlign=top;spacingLeft=4;spacingRight=4;overflow=hidden;rotatable=0;points=[[0,0.5],[1,0.5]];portConstraint=eastwest;arcSize=20;fontSize=21;" parent="hgge30WViiXJjyIwX5uO-7" vertex="1">
          <mxGeometry y="124" width="200" height="28" as="geometry" />
        </mxCell>
        <mxCell id="hgge30WViiXJjyIwX5uO-11" value="phone:int" style="text;align=left;verticalAlign=top;spacingLeft=4;spacingRight=4;overflow=hidden;rotatable=0;points=[[0,0.5],[1,0.5]];portConstraint=eastwest;arcSize=20;fontSize=21;" parent="hgge30WViiXJjyIwX5uO-7" vertex="1">
          <mxGeometry y="80" width="200" height="28" as="geometry" />
        </mxCell>
        <mxCell id="hgge30WViiXJjyIwX5uO-12" value="street:string&#xa;city:string&#xa;country:string" style="text;align=left;verticalAlign=top;spacingLeft=4;spacingRight=4;overflow=hidden;rotatable=0;points=[[0,0.5],[1,0.5]];portConstraint=eastwest;arcSize=20;fontSize=21;" parent="hgge30WViiXJjyIwX5uO-7" vertex="1">
          <mxGeometry y="96" width="200" height="28" as="geometry" />
        </mxCell>
        <mxCell id="hgge30WViiXJjyIwX5uO-13" value="gender:string" style="text;align=left;verticalAlign=top;spacingLeft=4;spacingRight=4;overflow=hidden;rotatable=0;points=[[0,0.5],[1,0.5]];portConstraint=eastwest;arcSize=20;fontSize=21;" parent="hgge30WViiXJjyIwX5uO-7" vertex="1">
          <mxGeometry y="140" width="200" height="28" as="geometry" />
        </mxCell>
        <mxCell id="hgge30WViiXJjyIwX5uO-14" value="national_Id:int" style="text;strokeColor=none;fillColor=none;align=left;verticalAlign=top;spacingLeft=4;spacingRight=4;overflow=hidden;rotatable=0;points=[[0,0.5],[1,0.5]];portConstraint=eastwest;whiteSpace=wrap;html=1;arcSize=20;fontSize=21;" parent="hgge30WViiXJjyIwX5uO-7" vertex="1">
          <mxGeometry y="160" width="200" height="26" as="geometry" />
        </mxCell>
        <mxCell id="hgge30WViiXJjyIwX5uO-15" value="region:string" style="text;strokeColor=none;fillColor=none;align=left;verticalAlign=top;spacingLeft=4;spacingRight=4;overflow=hidden;rotatable=0;points=[[0,0.5],[1,0.5]];portConstraint=eastwest;whiteSpace=wrap;html=1;arcSize=20;fontSize=21;" parent="hgge30WViiXJjyIwX5uO-7" vertex="1">
          <mxGeometry y="180" width="240" height="26" as="geometry" />
        </mxCell>
        <mxCell id="hgge30WViiXJjyIwX5uO-16" value="regionCodeNumber:string" style="text;strokeColor=none;fillColor=none;align=left;verticalAlign=top;spacingLeft=4;spacingRight=4;overflow=hidden;rotatable=0;points=[[0,0.5],[1,0.5]];portConstraint=eastwest;whiteSpace=wrap;html=1;arcSize=20;fontSize=21;" parent="hgge30WViiXJjyIwX5uO-7" vertex="1">
          <mxGeometry y="206" width="240" height="26" as="geometry" />
        </mxCell>
        <mxCell id="hgge30WViiXJjyIwX5uO-18" style="edgeStyle=none;rounded=0;orthogonalLoop=1;jettySize=auto;html=1;entryX=0.533;entryY=0.968;entryDx=0;entryDy=0;entryPerimeter=0;endArrow=block;endFill=0;arcSize=20;fontSize=21;" parent="1" source="hgge30WViiXJjyIwX5uO-7" target="hgge30WViiXJjyIwX5uO-5" edge="1">
          <mxGeometry relative="1" as="geometry" />
        </mxCell>
        <mxCell id="hgge30WViiXJjyIwX5uO-20" value="" style="swimlane;startSize=0;arcSize=20;fontSize=21;" parent="1" vertex="1">
          <mxGeometry x="2010" y="-25" width="360" height="535" as="geometry" />
        </mxCell>
        <mxCell id="hgge30WViiXJjyIwX5uO-21" value="&lt;font&gt;1&lt;/font&gt;" style="text;strokeColor=none;align=center;fillColor=none;html=1;verticalAlign=middle;whiteSpace=wrap;rounded=0;arcSize=20;fontSize=21;" parent="1" vertex="1">
          <mxGeometry x="-20" y="108" width="60" height="30" as="geometry" />
        </mxCell>
        <mxCell id="hgge30WViiXJjyIwX5uO-22" value="&lt;font&gt;1&lt;/font&gt;" style="text;strokeColor=none;align=center;fillColor=none;html=1;verticalAlign=middle;whiteSpace=wrap;rounded=0;arcSize=20;fontSize=21;" parent="1" vertex="1">
          <mxGeometry x="-120" y="180" width="60" height="30" as="geometry" />
        </mxCell>
      </root>
    </mxGraphModel>
  </diagram>
  <diagram id="271-X44B35lI0F_FkhUP" name="Trip SubSystem">
    <mxGraphModel dx="3018" dy="1938" grid="1" gridSize="10" guides="1" tooltips="1" connect="1" arrows="1" fold="1" page="1" pageScale="1" pageWidth="850" pageHeight="1100" math="0" shadow="0">
      <root>
        <mxCell id="0" />
        <mxCell id="1" parent="0" />
        <mxCell id="QyC2EJuQcsg16om7cd-e-1" value="Trip" style="swimlane;whiteSpace=wrap;html=1;arcSize=20;fontSize=25;fillColor=default;strokeColor=default;gradientColor=none;shadow=1;" vertex="1" parent="1">
          <mxGeometry x="-250" y="170" width="260" height="230" as="geometry" />
        </mxCell>
        <mxCell id="QyC2EJuQcsg16om7cd-e-2" value="tripId:String" style="text;align=left;verticalAlign=top;spacingLeft=4;spacingRight=4;overflow=hidden;rotatable=0;points=[[0,0.5],[1,0.5]];portConstraint=eastwest;arcSize=20;fontSize=25;" vertex="1" parent="QyC2EJuQcsg16om7cd-e-1">
          <mxGeometry y="22" width="200" height="28" as="geometry" />
        </mxCell>
        <mxCell id="QyC2EJuQcsg16om7cd-e-3" value="destination:String" style="text;align=left;verticalAlign=top;spacingLeft=4;spacingRight=4;overflow=hidden;rotatable=0;points=[[0,0.5],[1,0.5]];portConstraint=eastwest;arcSize=20;fontSize=25;" vertex="1" parent="QyC2EJuQcsg16om7cd-e-1">
          <mxGeometry y="62" width="230" height="38" as="geometry" />
        </mxCell>
        <mxCell id="QyC2EJuQcsg16om7cd-e-4" value="startDate:DateTime" style="text;align=left;verticalAlign=top;spacingLeft=4;spacingRight=4;overflow=hidden;rotatable=0;points=[[0,0.5],[1,0.5]];portConstraint=eastwest;arcSize=20;fontSize=25;" vertex="1" parent="QyC2EJuQcsg16om7cd-e-1">
          <mxGeometry y="100" width="250" height="28" as="geometry" />
        </mxCell>
        <mxCell id="QyC2EJuQcsg16om7cd-e-5" value="endDate:DateTime" style="text;align=left;verticalAlign=top;spacingLeft=4;spacingRight=4;overflow=hidden;rotatable=0;points=[[0,0.5],[1,0.5]];portConstraint=eastwest;arcSize=20;fontSize=25;" vertex="1" parent="QyC2EJuQcsg16om7cd-e-1">
          <mxGeometry y="140" width="260" height="90" as="geometry" />
        </mxCell>
        <mxCell id="zz7fdQq-7GG5mlBI55pg-1" value="tripPrice:Double" style="text;align=left;verticalAlign=top;spacingLeft=4;spacingRight=4;overflow=hidden;rotatable=0;points=[[0,0.5],[1,0.5]];portConstraint=eastwest;arcSize=20;fontSize=25;" vertex="1" parent="QyC2EJuQcsg16om7cd-e-1">
          <mxGeometry y="191" width="250" height="28" as="geometry" />
        </mxCell>
        <mxCell id="TWWSmtOVbp-j4KNFIZzs-22" style="rounded=0;orthogonalLoop=1;jettySize=auto;html=1;exitX=0.5;exitY=1;exitDx=0;exitDy=0;entryX=1;entryY=0.5;entryDx=0;entryDy=0;edgeStyle=orthogonalEdgeStyle;endArrow=none;endFill=0;" edge="1" parent="1" source="TWWSmtOVbp-j4KNFIZzs-17" target="QyC2EJuQcsg16om7cd-e-1">
          <mxGeometry relative="1" as="geometry" />
        </mxCell>
        <mxCell id="TWWSmtOVbp-j4KNFIZzs-17" value="Trip Departure" style="swimlane;whiteSpace=wrap;html=1;arcSize=20;fontSize=25;fillColor=default;strokeColor=default;gradientColor=none;shadow=1;" vertex="1" parent="1">
          <mxGeometry x="210" y="-120" width="270" height="200" as="geometry" />
        </mxCell>
        <mxCell id="TWWSmtOVbp-j4KNFIZzs-18" value="tripDepartureId:String" style="text;align=left;verticalAlign=top;spacingLeft=4;spacingRight=4;overflow=hidden;rotatable=0;points=[[0,0.5],[1,0.5]];portConstraint=eastwest;arcSize=20;fontSize=25;" vertex="1" parent="TWWSmtOVbp-j4KNFIZzs-17">
          <mxGeometry y="22" width="270" height="28" as="geometry" />
        </mxCell>
        <mxCell id="TWWSmtOVbp-j4KNFIZzs-19" value="startTime:Double" style="text;align=left;verticalAlign=top;spacingLeft=4;spacingRight=4;overflow=hidden;rotatable=0;points=[[0,0.5],[1,0.5]];portConstraint=eastwest;arcSize=20;fontSize=25;" vertex="1" parent="TWWSmtOVbp-j4KNFIZzs-17">
          <mxGeometry y="62" width="230" height="38" as="geometry" />
        </mxCell>
        <mxCell id="TWWSmtOVbp-j4KNFIZzs-20" value="endTime:Double" style="text;align=left;verticalAlign=top;spacingLeft=4;spacingRight=4;overflow=hidden;rotatable=0;points=[[0,0.5],[1,0.5]];portConstraint=eastwest;arcSize=20;fontSize=25;" vertex="1" parent="TWWSmtOVbp-j4KNFIZzs-17">
          <mxGeometry y="100" width="200" height="28" as="geometry" />
        </mxCell>
        <mxCell id="TWWSmtOVbp-j4KNFIZzs-21" value="description:String" style="text;align=left;verticalAlign=top;spacingLeft=4;spacingRight=4;overflow=hidden;rotatable=0;points=[[0,0.5],[1,0.5]];portConstraint=eastwest;arcSize=20;fontSize=25;" vertex="1" parent="TWWSmtOVbp-j4KNFIZzs-17">
          <mxGeometry y="140" width="230" height="92" as="geometry" />
        </mxCell>
        <mxCell id="7yZQTIUIMvkr3eRWx-nZ-14" style="rounded=0;orthogonalLoop=1;jettySize=auto;html=1;exitX=0.5;exitY=1;exitDx=0;exitDy=0;entryX=0.5;entryY=0;entryDx=0;entryDy=0;endArrow=none;endFill=0;" edge="1" parent="1" source="7yZQTIUIMvkr3eRWx-nZ-1" target="QyC2EJuQcsg16om7cd-e-1">
          <mxGeometry relative="1" as="geometry" />
        </mxCell>
        <mxCell id="7yZQTIUIMvkr3eRWx-nZ-15" style="rounded=0;orthogonalLoop=1;jettySize=auto;html=1;exitX=0;exitY=0.5;exitDx=0;exitDy=0;entryX=1;entryY=0.5;entryDx=0;entryDy=0;endArrow=none;endFill=0;" edge="1" parent="1" source="7yZQTIUIMvkr3eRWx-nZ-3" target="7yZQTIUIMvkr3eRWx-nZ-6">
          <mxGeometry relative="1" as="geometry" />
        </mxCell>
        <mxCell id="7yZQTIUIMvkr3eRWx-nZ-1" value="Program Line" style="swimlane;whiteSpace=wrap;html=1;arcSize=20;fontSize=25;fillColor=default;strokeColor=default;gradientColor=none;shadow=1;" vertex="1" parent="1">
          <mxGeometry x="-270" y="-120" width="300" height="170" as="geometry" />
        </mxCell>
        <mxCell id="7yZQTIUIMvkr3eRWx-nZ-2" value="programLineId:String" style="text;align=left;verticalAlign=top;spacingLeft=4;spacingRight=4;overflow=hidden;rotatable=0;points=[[0,0.5],[1,0.5]];portConstraint=eastwest;arcSize=20;fontSize=25;" vertex="1" parent="7yZQTIUIMvkr3eRWx-nZ-1">
          <mxGeometry y="22" width="260" height="28" as="geometry" />
        </mxCell>
        <mxCell id="7yZQTIUIMvkr3eRWx-nZ-3" value="programDay:DateTime" style="text;align=left;verticalAlign=top;spacingLeft=4;spacingRight=4;overflow=hidden;rotatable=0;points=[[0,0.5],[1,0.5]];portConstraint=eastwest;arcSize=20;fontSize=25;" vertex="1" parent="7yZQTIUIMvkr3eRWx-nZ-1">
          <mxGeometry y="62" width="260" height="38" as="geometry" />
        </mxCell>
        <mxCell id="7yZQTIUIMvkr3eRWx-nZ-4" value="programLocation:String" style="text;align=left;verticalAlign=top;spacingLeft=4;spacingRight=4;overflow=hidden;rotatable=0;points=[[0,0.5],[1,0.5]];portConstraint=eastwest;arcSize=20;fontSize=25;" vertex="1" parent="7yZQTIUIMvkr3eRWx-nZ-1">
          <mxGeometry y="100" width="300" height="28" as="geometry" />
        </mxCell>
        <mxCell id="7yZQTIUIMvkr3eRWx-nZ-6" value="Attraction" style="swimlane;whiteSpace=wrap;html=1;arcSize=20;fontSize=25;fillColor=default;strokeColor=default;gradientColor=none;shadow=1;" vertex="1" parent="1">
          <mxGeometry x="-770" y="-140" width="260" height="200" as="geometry" />
        </mxCell>
        <mxCell id="7yZQTIUIMvkr3eRWx-nZ-7" value="attractionId:String" style="text;align=left;verticalAlign=top;spacingLeft=4;spacingRight=4;overflow=hidden;rotatable=0;points=[[0,0.5],[1,0.5]];portConstraint=eastwest;arcSize=20;fontSize=25;" vertex="1" parent="7yZQTIUIMvkr3eRWx-nZ-6">
          <mxGeometry y="22" width="260" height="28" as="geometry" />
        </mxCell>
        <mxCell id="7yZQTIUIMvkr3eRWx-nZ-8" value="startTime:Double" style="text;align=left;verticalAlign=top;spacingLeft=4;spacingRight=4;overflow=hidden;rotatable=0;points=[[0,0.5],[1,0.5]];portConstraint=eastwest;arcSize=20;fontSize=25;" vertex="1" parent="7yZQTIUIMvkr3eRWx-nZ-6">
          <mxGeometry y="62" width="230" height="38" as="geometry" />
        </mxCell>
        <mxCell id="7yZQTIUIMvkr3eRWx-nZ-9" value="endTime:Double" style="text;align=left;verticalAlign=top;spacingLeft=4;spacingRight=4;overflow=hidden;rotatable=0;points=[[0,0.5],[1,0.5]];portConstraint=eastwest;arcSize=20;fontSize=25;" vertex="1" parent="7yZQTIUIMvkr3eRWx-nZ-6">
          <mxGeometry y="100" width="250" height="28" as="geometry" />
        </mxCell>
        <mxCell id="7yZQTIUIMvkr3eRWx-nZ-10" value="activity:String" style="text;align=left;verticalAlign=top;spacingLeft=4;spacingRight=4;overflow=hidden;rotatable=0;points=[[0,0.5],[1,0.5]];portConstraint=eastwest;arcSize=20;fontSize=25;" vertex="1" parent="7yZQTIUIMvkr3eRWx-nZ-6">
          <mxGeometry y="140" width="260" height="92" as="geometry" />
        </mxCell>
        <mxCell id="7yZQTIUIMvkr3eRWx-nZ-13" style="edgeStyle=orthogonalEdgeStyle;rounded=0;orthogonalLoop=1;jettySize=auto;html=1;exitX=1;exitY=0.5;exitDx=0;exitDy=0;entryX=0;entryY=0.5;entryDx=0;entryDy=0;endArrow=none;endFill=0;" edge="1" parent="1" source="7yZQTIUIMvkr3eRWx-nZ-4" target="TWWSmtOVbp-j4KNFIZzs-20">
          <mxGeometry relative="1" as="geometry" />
        </mxCell>
      </root>
    </mxGraphModel>
  </diagram>
  <diagram id="MSM8xAKy0NQ9xcN8hGYa" name="Hotel SubSystem">
    <mxGraphModel dx="957" dy="698" grid="1" gridSize="10" guides="1" tooltips="1" connect="1" arrows="1" fold="1" page="1" pageScale="1" pageWidth="850" pageHeight="1100" math="0" shadow="0">
      <root>
        <mxCell id="0" />
        <mxCell id="1" parent="0" />
        <mxCell id="1-C2_R5OWndXuA82Eb7o-1" value="Hotel" style="swimlane;whiteSpace=wrap;html=1;arcSize=20;fontSize=21;" vertex="1" parent="1">
          <mxGeometry x="890" y="820" width="200" height="200" as="geometry" />
        </mxCell>
        <mxCell id="1-C2_R5OWndXuA82Eb7o-2" value="hotelId:String" style="text;align=left;verticalAlign=top;spacingLeft=4;spacingRight=4;overflow=hidden;rotatable=0;points=[[0,0.5],[1,0.5]];portConstraint=eastwest;arcSize=20;fontSize=21;" vertex="1" parent="1-C2_R5OWndXuA82Eb7o-1">
          <mxGeometry y="22" width="200" height="28" as="geometry" />
        </mxCell>
        <mxCell id="1-C2_R5OWndXuA82Eb7o-3" value="hotelLocation:String" style="text;strokeColor=none;fillColor=none;align=left;verticalAlign=top;spacingLeft=4;spacingRight=4;overflow=hidden;rotatable=0;points=[[0,0.5],[1,0.5]];portConstraint=eastwest;whiteSpace=wrap;html=1;arcSize=20;fontSize=21;" vertex="1" parent="1-C2_R5OWndXuA82Eb7o-1">
          <mxGeometry y="78" width="200" height="26" as="geometry" />
        </mxCell>
        <mxCell id="1-C2_R5OWndXuA82Eb7o-4" value="totalRoom:Int" style="text;strokeColor=none;fillColor=none;align=left;verticalAlign=top;spacingLeft=4;spacingRight=4;overflow=hidden;rotatable=0;points=[[0,0.5],[1,0.5]];portConstraint=eastwest;whiteSpace=wrap;html=1;arcSize=20;fontSize=21;" vertex="1" parent="1-C2_R5OWndXuA82Eb7o-1">
          <mxGeometry y="104" width="200" height="26" as="geometry" />
        </mxCell>
        <mxCell id="1-C2_R5OWndXuA82Eb7o-5" value="availableRooms:Int" style="text;strokeColor=none;fillColor=none;align=left;verticalAlign=top;spacingLeft=4;spacingRight=4;overflow=hidden;rotatable=0;points=[[0,0.5],[1,0.5]];portConstraint=eastwest;whiteSpace=wrap;html=1;arcSize=20;fontSize=21;" vertex="1" parent="1-C2_R5OWndXuA82Eb7o-1">
          <mxGeometry y="130" width="200" height="26" as="geometry" />
        </mxCell>
        <mxCell id="1-C2_R5OWndXuA82Eb7o-6" value="hotelRating:Double" style="text;align=left;verticalAlign=top;spacingLeft=4;spacingRight=4;overflow=hidden;rotatable=0;points=[[0,0.5],[1,0.5]];portConstraint=eastwest;arcSize=20;fontSize=21;" vertex="1" parent="1-C2_R5OWndXuA82Eb7o-1">
          <mxGeometry y="156" width="200" height="28" as="geometry" />
        </mxCell>
        <mxCell id="1-C2_R5OWndXuA82Eb7o-11" value="hotelName:String" style="text;strokeColor=none;fillColor=none;align=left;verticalAlign=top;spacingLeft=4;spacingRight=4;overflow=hidden;rotatable=0;points=[[0,0.5],[1,0.5]];portConstraint=eastwest;whiteSpace=wrap;html=1;arcSize=20;fontSize=21;" vertex="1" parent="1-C2_R5OWndXuA82Eb7o-1">
          <mxGeometry y="50" width="200" height="26" as="geometry" />
        </mxCell>
        <mxCell id="HEv7tmHpK4F1wRRnuUMk-3" style="edgeStyle=orthogonalEdgeStyle;rounded=0;orthogonalLoop=1;jettySize=auto;html=1;entryX=1;entryY=0.5;entryDx=0;entryDy=0;endArrow=none;endFill=0;" edge="1" parent="1" source="1-C2_R5OWndXuA82Eb7o-12" target="1-C2_R5OWndXuA82Eb7o-4">
          <mxGeometry relative="1" as="geometry" />
        </mxCell>
        <mxCell id="1-C2_R5OWndXuA82Eb7o-12" value="Accommodation" style="swimlane;whiteSpace=wrap;html=1;arcSize=20;fontSize=21;" vertex="1" parent="1">
          <mxGeometry x="1280" y="658" width="200" height="132" as="geometry" />
        </mxCell>
        <mxCell id="1-C2_R5OWndXuA82Eb7o-13" value="accommodation_Id:string" style="text;strokeColor=none;fillColor=none;align=left;verticalAlign=top;spacingLeft=4;spacingRight=4;overflow=hidden;rotatable=0;points=[[0,0.5],[1,0.5]];portConstraint=eastwest;whiteSpace=wrap;html=1;arcSize=20;fontSize=21;" vertex="1" parent="1-C2_R5OWndXuA82Eb7o-12">
          <mxGeometry y="24" width="200" height="26" as="geometry" />
        </mxCell>
        <mxCell id="1-C2_R5OWndXuA82Eb7o-14" value="room_type:string" style="text;align=left;verticalAlign=top;spacingLeft=4;spacingRight=4;overflow=hidden;rotatable=0;points=[[0,0.5],[1,0.5]];portConstraint=eastwest;arcSize=20;fontSize=21;" vertex="1" parent="1-C2_R5OWndXuA82Eb7o-12">
          <mxGeometry y="50" width="200" height="28" as="geometry" />
        </mxCell>
        <mxCell id="1-C2_R5OWndXuA82Eb7o-15" value="price per night:double" style="text;align=left;verticalAlign=top;spacingLeft=4;spacingRight=4;overflow=hidden;rotatable=0;points=[[0,0.5],[1,0.5]];portConstraint=eastwest;arcSize=20;fontSize=21;" vertex="1" parent="1-C2_R5OWndXuA82Eb7o-12">
          <mxGeometry y="78" width="200" height="28" as="geometry" />
        </mxCell>
        <mxCell id="1-C2_R5OWndXuA82Eb7o-16" value="amenites:string" style="text;strokeColor=none;fillColor=none;align=left;verticalAlign=top;spacingLeft=4;spacingRight=4;overflow=hidden;rotatable=0;points=[[0,0.5],[1,0.5]];portConstraint=eastwest;whiteSpace=wrap;html=1;arcSize=20;fontSize=21;" vertex="1" parent="1-C2_R5OWndXuA82Eb7o-12">
          <mxGeometry y="106" width="200" height="26" as="geometry" />
        </mxCell>
        <mxCell id="1-C2_R5OWndXuA82Eb7o-17" value="&lt;b&gt;HotelReservation&lt;/b&gt;" style="swimlane;fontStyle=0;childLayout=stackLayout;horizontal=1;startSize=26;fillColor=none;horizontalStack=0;resizeParent=1;resizeParentMax=0;resizeLast=0;collapsible=1;marginBottom=0;whiteSpace=wrap;html=1;arcSize=20;fontSize=21;" vertex="1" parent="1">
          <mxGeometry x="1275" y="390" width="210" height="172" as="geometry" />
        </mxCell>
        <mxCell id="1-C2_R5OWndXuA82Eb7o-18" value="accommodation_Id:string" style="text;strokeColor=none;fillColor=none;align=left;verticalAlign=top;spacingLeft=4;spacingRight=4;overflow=hidden;rotatable=0;points=[[0,0.5],[1,0.5]];portConstraint=eastwest;whiteSpace=wrap;html=1;arcSize=20;fontSize=21;" vertex="1" parent="1-C2_R5OWndXuA82Eb7o-17">
          <mxGeometry y="26" width="210" height="26" as="geometry" />
        </mxCell>
        <mxCell id="1-C2_R5OWndXuA82Eb7o-19" value="hotel_reservation_id:string" style="text;strokeColor=none;fillColor=none;align=left;verticalAlign=top;spacingLeft=4;spacingRight=4;overflow=hidden;rotatable=0;points=[[0,0.5],[1,0.5]];portConstraint=eastwest;whiteSpace=wrap;html=1;arcSize=20;fontSize=21;" vertex="1" parent="1-C2_R5OWndXuA82Eb7o-17">
          <mxGeometry y="52" width="210" height="26" as="geometry" />
        </mxCell>
        <mxCell id="1-C2_R5OWndXuA82Eb7o-20" value="reservation_id:string" style="text;align=left;verticalAlign=top;spacingLeft=4;spacingRight=4;overflow=hidden;rotatable=0;points=[[0,0.5],[1,0.5]];portConstraint=eastwest;arcSize=20;fontSize=21;" vertex="1" parent="1-C2_R5OWndXuA82Eb7o-17">
          <mxGeometry y="78" width="210" height="94" as="geometry" />
        </mxCell>
        <mxCell id="HEv7tmHpK4F1wRRnuUMk-4" style="rounded=0;orthogonalLoop=1;jettySize=auto;html=1;exitX=0.496;exitY=1.011;exitDx=0;exitDy=0;entryX=0.5;entryY=0;entryDx=0;entryDy=0;exitPerimeter=0;endArrow=none;endFill=0;" edge="1" parent="1" source="1-C2_R5OWndXuA82Eb7o-20" target="1-C2_R5OWndXuA82Eb7o-12">
          <mxGeometry relative="1" as="geometry" />
        </mxCell>
      </root>
    </mxGraphModel>
  </diagram>
  <diagram id="JQwq3xYdDQGJ3E1igkM8" name="Flight SubSystem">
    <mxGraphModel dx="2399" dy="599" grid="1" gridSize="10" guides="1" tooltips="1" connect="1" arrows="1" fold="1" page="1" pageScale="1" pageWidth="850" pageHeight="1100" math="0" shadow="0">
      <root>
        <mxCell id="0" />
        <mxCell id="1" parent="0" />
        <mxCell id="dd5spfmnblDJFzU5kDqp-20" style="rounded=0;orthogonalLoop=1;jettySize=auto;html=1;exitX=0.5;exitY=1;exitDx=0;exitDy=0;entryX=0.5;entryY=0;entryDx=0;entryDy=0;endArrow=none;endFill=0;" edge="1" parent="1" source="dd5spfmnblDJFzU5kDqp-1" target="dd5spfmnblDJFzU5kDqp-7">
          <mxGeometry relative="1" as="geometry" />
        </mxCell>
        <mxCell id="dd5spfmnblDJFzU5kDqp-1" value="Flight" style="swimlane;whiteSpace=wrap;html=1;arcSize=20;fontSize=21;" vertex="1" parent="1">
          <mxGeometry y="460" width="240" height="200" as="geometry" />
        </mxCell>
        <mxCell id="dd5spfmnblDJFzU5kDqp-2" value="flightId:String" style="text;align=left;verticalAlign=top;spacingLeft=4;spacingRight=4;overflow=hidden;rotatable=0;points=[[0,0.5],[1,0.5]];portConstraint=eastwest;arcSize=20;fontSize=21;" vertex="1" parent="dd5spfmnblDJFzU5kDqp-1">
          <mxGeometry y="22" width="200" height="28" as="geometry" />
        </mxCell>
        <mxCell id="dd5spfmnblDJFzU5kDqp-3" value="flightPrice:Double" style="text;align=left;verticalAlign=top;spacingLeft=4;spacingRight=4;overflow=hidden;rotatable=0;points=[[0,0.5],[1,0.5]];portConstraint=eastwest;arcSize=20;fontSize=21;" vertex="1" parent="dd5spfmnblDJFzU5kDqp-1">
          <mxGeometry y="50" width="200" height="28" as="geometry" />
        </mxCell>
        <mxCell id="dd5spfmnblDJFzU5kDqp-5" value="arrivalSeats:Int" style="text;strokeColor=none;fillColor=none;align=left;verticalAlign=top;spacingLeft=4;spacingRight=4;overflow=hidden;rotatable=0;points=[[0,0.5],[1,0.5]];portConstraint=eastwest;whiteSpace=wrap;html=1;arcSize=20;fontSize=21;" vertex="1" parent="dd5spfmnblDJFzU5kDqp-1">
          <mxGeometry y="110" width="200" height="26" as="geometry" />
        </mxCell>
        <mxCell id="dd5spfmnblDJFzU5kDqp-6" value="availableSeats:Seats" style="text;strokeColor=none;fillColor=none;align=left;verticalAlign=top;spacingLeft=4;spacingRight=4;overflow=hidden;rotatable=0;points=[[0,0.5],[1,0.5]];portConstraint=eastwest;whiteSpace=wrap;html=1;arcSize=20;fontSize=21;" vertex="1" parent="dd5spfmnblDJFzU5kDqp-1">
          <mxGeometry y="150" width="230" height="26" as="geometry" />
        </mxCell>
        <mxCell id="dd5spfmnblDJFzU5kDqp-4" value="departure_Airport:String" style="text;strokeColor=none;fillColor=none;align=left;verticalAlign=top;spacingLeft=4;spacingRight=4;overflow=hidden;rotatable=0;points=[[0,0.5],[1,0.5]];portConstraint=eastwest;whiteSpace=wrap;html=1;arcSize=20;fontSize=21;" vertex="1" parent="dd5spfmnblDJFzU5kDqp-1">
          <mxGeometry y="82" width="240" height="26" as="geometry" />
        </mxCell>
        <mxCell id="dd5spfmnblDJFzU5kDqp-7" value="Flight Departure" style="swimlane;whiteSpace=wrap;html=1;arcSize=20;fontSize=21;" vertex="1" parent="1">
          <mxGeometry x="-5" y="740" width="250" height="200" as="geometry" />
        </mxCell>
        <mxCell id="dd5spfmnblDJFzU5kDqp-9" value="arrivalTime:DateTime" style="text;align=left;verticalAlign=top;spacingLeft=4;spacingRight=4;overflow=hidden;rotatable=0;points=[[0,0.5],[1,0.5]];portConstraint=eastwest;arcSize=20;fontSize=21;" vertex="1" parent="dd5spfmnblDJFzU5kDqp-7">
          <mxGeometry y="76" width="230" height="28" as="geometry" />
        </mxCell>
        <mxCell id="dd5spfmnblDJFzU5kDqp-10" value="departureTime:DateTime" style="text;align=left;verticalAlign=top;spacingLeft=4;spacingRight=4;overflow=hidden;rotatable=0;points=[[0,0.5],[1,0.5]];portConstraint=eastwest;arcSize=20;fontSize=21;" vertex="1" parent="dd5spfmnblDJFzU5kDqp-7">
          <mxGeometry y="48" width="250" height="28" as="geometry" />
        </mxCell>
        <mxCell id="dd5spfmnblDJFzU5kDqp-12" value="flightDepartureId:String" style="text;strokeColor=none;fillColor=none;align=left;verticalAlign=top;spacingLeft=4;spacingRight=4;overflow=hidden;rotatable=0;points=[[0,0.5],[1,0.5]];portConstraint=eastwest;whiteSpace=wrap;html=1;arcSize=20;fontSize=21;" vertex="1" parent="dd5spfmnblDJFzU5kDqp-7">
          <mxGeometry y="22" width="250" height="26" as="geometry" />
        </mxCell>
        <mxCell id="dd5spfmnblDJFzU5kDqp-13" value="arrivalDay:DateTime" style="text;align=left;verticalAlign=top;spacingLeft=4;spacingRight=4;overflow=hidden;rotatable=0;points=[[0,0.5],[1,0.5]];portConstraint=eastwest;arcSize=20;fontSize=21;" vertex="1" parent="dd5spfmnblDJFzU5kDqp-7">
          <mxGeometry y="150" width="210" height="28" as="geometry" />
        </mxCell>
        <mxCell id="dd5spfmnblDJFzU5kDqp-8" value="departureDay:DateTime" style="text;align=left;verticalAlign=top;spacingLeft=4;spacingRight=4;overflow=hidden;rotatable=0;points=[[0,0.5],[1,0.5]];portConstraint=eastwest;arcSize=20;fontSize=21;" vertex="1" parent="dd5spfmnblDJFzU5kDqp-7">
          <mxGeometry y="110" width="240" height="28" as="geometry" />
        </mxCell>
        <mxCell id="dd5spfmnblDJFzU5kDqp-14" value="Seat" style="swimlane;whiteSpace=wrap;html=1;arcSize=20;fontSize=21;" vertex="1" parent="1">
          <mxGeometry x="410" y="490" width="200" height="90" as="geometry" />
        </mxCell>
        <mxCell id="dd5spfmnblDJFzU5kDqp-16" value="seatId:String" style="text;align=left;verticalAlign=top;spacingLeft=4;spacingRight=4;overflow=hidden;rotatable=0;points=[[0,0.5],[1,0.5]];portConstraint=eastwest;arcSize=20;fontSize=21;" vertex="1" parent="dd5spfmnblDJFzU5kDqp-14">
          <mxGeometry y="20" width="200" height="28" as="geometry" />
        </mxCell>
        <mxCell id="dd5spfmnblDJFzU5kDqp-17" value="seatEconomy:String" style="text;align=left;verticalAlign=top;spacingLeft=4;spacingRight=4;overflow=hidden;rotatable=0;points=[[0,0.5],[1,0.5]];portConstraint=eastwest;arcSize=20;fontSize=21;" vertex="1" parent="dd5spfmnblDJFzU5kDqp-14">
          <mxGeometry y="48" width="200" height="28" as="geometry" />
        </mxCell>
        <mxCell id="dd5spfmnblDJFzU5kDqp-19" style="rounded=0;orthogonalLoop=1;jettySize=auto;html=1;entryX=0;entryY=0.5;entryDx=0;entryDy=0;endArrow=none;endFill=0;" edge="1" parent="1" source="dd5spfmnblDJFzU5kDqp-4" target="dd5spfmnblDJFzU5kDqp-17">
          <mxGeometry relative="1" as="geometry" />
        </mxCell>
      </root>
    </mxGraphModel>
  </diagram>
  <diagram id="GFcsrx8IceGR_oujWDnq" name="payments SubSystem">
    <mxGraphModel dx="1084" dy="419" grid="1" gridSize="10" guides="1" tooltips="1" connect="1" arrows="1" fold="1" page="1" pageScale="1" pageWidth="850" pageHeight="1100" math="0" shadow="0">
      <root>
        <mxCell id="0" />
        <mxCell id="1" parent="0" />
        <mxCell id="k2bTm9xS9x1CHQgWaNDN-1" value="Payment" style="swimlane;whiteSpace=wrap;html=1;arcSize=20;fontSize=21;" vertex="1" parent="1">
          <mxGeometry x="440" y="60" width="230" height="210" as="geometry" />
        </mxCell>
        <mxCell id="k2bTm9xS9x1CHQgWaNDN-2" value="paymentId:String" style="text;align=left;verticalAlign=top;spacingLeft=4;spacingRight=4;overflow=hidden;rotatable=0;points=[[0,0.5],[1,0.5]];portConstraint=eastwest;arcSize=20;fontSize=21;" vertex="1" parent="k2bTm9xS9x1CHQgWaNDN-1">
          <mxGeometry y="22" width="250" height="28" as="geometry" />
        </mxCell>
        <mxCell id="k2bTm9xS9x1CHQgWaNDN-3" value="paymentMethod:String" style="text;align=left;verticalAlign=top;spacingLeft=4;spacingRight=4;overflow=hidden;rotatable=0;points=[[0,0.5],[1,0.5]];portConstraint=eastwest;arcSize=20;fontSize=21;" vertex="1" parent="k2bTm9xS9x1CHQgWaNDN-1">
          <mxGeometry y="46" width="250" height="28" as="geometry" />
        </mxCell>
        <mxCell id="k2bTm9xS9x1CHQgWaNDN-4" value="paymentAmount:String" style="text;align=left;verticalAlign=top;spacingLeft=4;spacingRight=4;overflow=hidden;rotatable=0;points=[[0,0.5],[1,0.5]];portConstraint=eastwest;arcSize=20;fontSize=21;" vertex="1" parent="k2bTm9xS9x1CHQgWaNDN-1">
          <mxGeometry y="70" width="250" height="28" as="geometry" />
        </mxCell>
        <mxCell id="k2bTm9xS9x1CHQgWaNDN-5" value="paymentDate:DateTime" style="text;align=left;verticalAlign=top;spacingLeft=4;spacingRight=4;overflow=hidden;rotatable=0;points=[[0,0.5],[1,0.5]];portConstraint=eastwest;arcSize=20;fontSize=21;" vertex="1" parent="k2bTm9xS9x1CHQgWaNDN-1">
          <mxGeometry y="98" width="250" height="28" as="geometry" />
        </mxCell>
        <mxCell id="k2bTm9xS9x1CHQgWaNDN-9" value="currency:String" style="text;strokeColor=none;fillColor=none;align=left;verticalAlign=top;spacingLeft=4;spacingRight=4;overflow=hidden;rotatable=0;points=[[0,0.5],[1,0.5]];portConstraint=eastwest;whiteSpace=wrap;html=1;arcSize=20;fontSize=21;" vertex="1" parent="k2bTm9xS9x1CHQgWaNDN-1">
          <mxGeometry y="140" width="250" height="50" as="geometry" />
        </mxCell>
      </root>
    </mxGraphModel>
  </diagram>
  <diagram id="eoJpKAWlToiJ0qrgKLZ7" name="Users SubSystem">
    <mxGraphModel dx="1084" dy="419" grid="1" gridSize="10" guides="1" tooltips="1" connect="1" arrows="1" fold="1" page="1" pageScale="1" pageWidth="850" pageHeight="1100" math="0" shadow="0">
      <root>
        <mxCell id="0" />
        <mxCell id="1" parent="0" />
      </root>
    </mxGraphModel>
  </diagram>
  <diagram id="4UdeIMiVlTUFyHBdOxE-" name="Reservations">
    <mxGraphModel dx="1084" dy="419" grid="1" gridSize="10" guides="1" tooltips="1" connect="1" arrows="1" fold="1" page="1" pageScale="1" pageWidth="850" pageHeight="1100" math="0" shadow="0">
      <root>
        <mxCell id="0" />
        <mxCell id="1" parent="0" />
      </root>
    </mxGraphModel>
  </diagram>
  <diagram id="HAalVj52g3IkjUGYXhyi" name="Updated Main">
    <mxGraphModel dx="1084" dy="419" grid="1" gridSize="10" guides="1" tooltips="1" connect="1" arrows="1" fold="1" page="1" pageScale="1" pageWidth="850" pageHeight="1100" math="0" shadow="0">
      <root>
        <mxCell id="0" />
        <mxCell id="1" parent="0" />
      </root>
    </mxGraphModel>
  </diagram>
</mxfile>
